<svg width="24" height="24" viewBox="0 0 24 24" fill="none" xmlns="http://www.w3.org/2000/svg">
<path fill-rule="evenodd" clip-rule="evenodd" d="M8.02142 1.25H5.97858C5.12903 1.24995 4.39704 1.24991 3.81087 1.33028C3.18267 1.41641 2.5805 1.61064 2.09207 2.10871C1.60365 2.60679 1.41318 3.22086 1.32872 3.86148C1.24991 4.45924 1.24995 5.20569 1.25 6.07203L1.25 6.13637L1.25 17.928C1.24995 18.7943 1.24991 19.5408 1.32872 20.1385C1.41318 20.7791 1.60365 21.3932 2.09207 21.8913C2.5805 22.3894 3.18267 22.5836 3.81087 22.6697C4.39704 22.7501 5.12903 22.75 5.97858 22.75H5.9786L12.75 22.75L12.75 6.07203C12.75 5.20569 12.7501 4.45924 12.6713 3.86148C12.5868 3.22086 12.3964 2.60679 11.9079 2.10871C11.4195 1.61064 10.8173 1.41641 10.1891 1.33028C9.60296 1.24991 8.87097 1.24995 8.02142 1.25ZM3.44736 3.49079C3.52031 3.41639 3.65059 3.32438 4.06626 3.26739C4.5095 3.20662 5.11105 3.20455 6.04167 3.20455H7.95833C8.88895 3.20455 9.49051 3.20662 9.93374 3.26739C10.3494 3.32438 10.4797 3.41639 10.5526 3.49079C10.6256 3.56518 10.7158 3.69804 10.7717 4.12192C10.8313 4.57391 10.8333 5.18736 10.8333 6.13637V20.7955H6.04167C5.11105 20.7955 4.5095 20.7934 4.06626 20.7326C3.65059 20.6756 3.52031 20.5836 3.44736 20.5092C3.37441 20.4348 3.28418 20.302 3.2283 19.8781C3.16871 19.4261 3.16667 18.8126 3.16667 17.8636V6.13637C3.16667 5.18736 3.16871 4.57391 3.2283 4.12192C3.28418 3.69804 3.37441 3.56518 3.44736 3.49079ZM15.5 11.25C15.0858 11.25 14.75 11.5858 14.75 12C14.75 12.4142 15.0858 12.75 15.5 12.75H18.5C18.9142 12.75 19.25 12.4142 19.25 12C19.25 11.5858 18.9142 11.25 18.5 11.25H15.5ZM15.5 15.25C15.0858 15.25 14.75 15.5858 14.75 16C14.75 16.4142 15.0858 16.75 15.5 16.75H18.5C18.9142 16.75 19.25 16.4142 19.25 16C19.25 15.5858 18.9142 15.25 18.5 15.25H15.5Z" fill="#0084F0"/>
<path opacity="0.4" fill-rule="evenodd" clip-rule="evenodd" d="M5.5 5C4.94772 5 4.5 5.44772 4.5 6C4.5 6.55228 4.94772 7 5.5 7H8.5C9.05228 7 9.5 6.55228 9.5 6C9.5 5.44772 9.05228 5 8.5 5H5.5ZM5.5 9C4.94772 9 4.5 9.44772 4.5 10C4.5 10.5523 4.94772 11 5.5 11H8.5C9.05228 11 9.5 10.5523 9.5 10C9.5 9.44772 9.05228 9 8.5 9H5.5ZM5.5 13C4.94772 13 4.5 13.4477 4.5 14C4.5 14.5523 4.94772 15 5.5 15H8.5C9.05228 15 9.5 14.5523 9.5 14C9.5 13.4477 9.05228 13 8.5 13H5.5ZM21.9445 8.05546C21.4891 7.59999 20.9223 7.41432 20.2945 7.32991C19.6997 7.24995 18.9505 7.24997 18.052 7.25H18.052L11.25 7.25V22.75L18.052 22.75H18.052H18.0521C18.9505 22.75 19.6997 22.7501 20.2945 22.6701C20.9223 22.5857 21.4891 22.4 21.9445 21.9445C22.4 21.4891 22.5857 20.9223 22.6701 20.2945C22.7501 19.6997 22.75 18.9505 22.75 18.052V18.052V11.948V11.948C22.75 11.0495 22.7501 10.3003 22.6701 9.70552C22.5857 9.07773 22.4 8.51093 21.9445 8.05546Z" fill="#0084F0"/>
</svg>
