<svg width="20" height="22" viewBox="0 0 20 22" fill="none" xmlns="http://www.w3.org/2000/svg">
<path d="M9.75004 0C10.6237 0 11.3979 0.299534 12.2237 0.798828C13.0234 1.28243 13.9376 1.99595 15.085 2.8916L16.2686 3.81543C17.6444 4.88861 18.5339 5.5827 19.0176 6.5752C19.5009 7.5672 19.5006 8.6967 19.5 10.4453V12.7773C19.5001 14.6218 19.4998 16.0827 19.3467 17.2256C19.1892 18.4014 18.8573 19.353 18.1094 20.1035C17.3612 20.8543 16.4121 21.1884 15.2393 21.3467C14.0999 21.5004 12.6442 21.5 10.8067 21.5H8.6934C6.8559 21.5 5.40013 21.5004 4.26078 21.3467C3.0879 21.1884 2.13891 20.8544 1.39066 20.1035C0.642773 19.353 0.310882 18.4014 0.153359 17.2256C0.000269291 16.0827 2.25652e-05 14.6218 3.82403e-05 12.7773V10.4453C-0.000532339 8.69674 -0.000824534 7.56719 0.48246 6.5752C0.966136 5.58273 1.8557 4.88857 3.23148 3.81543L4.41508 2.8916C5.56255 1.99593 6.47662 1.28244 7.27641 0.798828C8.10217 0.299507 8.87637 1.7892e-05 9.75004 0ZM9.75004 11.75C8.09318 11.75 6.75004 13.0931 6.75004 14.75C6.75004 16.4069 8.09318 17.75 9.75004 17.75C11.4069 17.75 12.75 16.4069 12.75 14.75C12.75 13.0931 11.4069 11.75 9.75004 11.75Z" fill="#0084F0"/>
</svg>
