<svg width="20" height="22" viewBox="0 0 20 22" fill="none" xmlns="http://www.w3.org/2000/svg">
<path d="M9.75 0C10.6237 0 11.3979 0.299534 12.2236 0.798828C13.0234 1.28243 13.9375 1.99595 15.085 2.8916L16.2686 3.81543C17.6444 4.88861 18.5339 5.58271 19.0176 6.5752C19.5009 7.5672 19.5006 8.6967 19.5 10.4453V12.7773C19.5 14.6218 19.4998 16.0827 19.3467 17.2256C19.1892 18.4014 18.8573 19.353 18.1094 20.1035C17.3611 20.8543 16.4121 21.1884 15.2393 21.3467C14.0999 21.5004 12.6441 21.5 10.8066 21.5H8.69336C6.85586 21.5 5.40009 21.5004 4.26074 21.3467C3.08786 21.1884 2.13887 20.8544 1.39062 20.1035C0.642735 19.353 0.310844 18.4014 0.15332 17.2256C0.00023105 16.0827 -1.56751e-05 14.6219 0 12.7773V10.4453C-0.000570579 8.69674 -0.000862774 7.56719 0.482422 6.5752C0.966098 5.58273 1.85566 4.88857 3.23145 3.81543L4.41504 2.8916C5.56251 1.99593 6.47658 1.28244 7.27637 0.798828C8.10213 0.299507 8.87634 1.78919e-05 9.75 0ZM9.75 11.75C8.09315 11.75 6.75 13.0931 6.75 14.75C6.75 16.4069 8.09315 17.75 9.75 17.75C11.4069 17.75 12.75 16.4069 12.75 14.75C12.75 13.0931 11.4069 11.75 9.75 11.75Z" fill="#3F3F3F"/>
</svg>
