<svg width="22" height="20" viewBox="0 0 22 20" fill="none" xmlns="http://www.w3.org/2000/svg">
<path d="M10.8193 0C12.1425 -3.33296e-05 13.2341 0.000374113 14.0977 0.116211C15.0042 0.237865 15.8052 0.502987 16.4463 1.14258C17.0872 1.78218 17.3527 2.58096 17.4746 3.48535C17.53 3.89661 17.5591 4.35981 17.5742 4.875C17.5742 4.875 18.8652 4.87514 19.3301 4.9375C19.8374 5.00561 20.3578 5.16358 20.7842 5.58887C21.2106 6.01431 21.3692 6.53376 21.4375 7.04004C21.5 7.50382 21.5001 8.07712 21.5 8.71484V16.5752C21.4999 18.1905 20.1874 19.4999 18.5684 19.5H6.77148C5.44854 19.5 4.35765 19.4996 3.49414 19.3838C2.5874 19.2622 1.78573 18.9971 1.14453 18.3574C0.503646 17.7178 0.23811 16.919 0.116211 16.0146C0.000104108 15.1531 -3.34073e-05 14.0642 0 12.7441V6.75586C-3.34078e-05 5.43574 0.000103185 4.34694 0.116211 3.48535C0.238111 2.58098 0.503646 1.78217 1.14453 1.14258C1.78573 0.502872 2.5874 0.237836 3.49414 0.116211C4.35764 0.000429607 5.44856 -3.33225e-05 6.77148 0H10.8193ZM17.5918 16.5752C17.5919 17.1136 18.0297 17.5498 18.5693 17.5498C19.1089 17.5497 19.5458 17.1135 19.5459 16.5752V8.77539C19.5459 8.0584 19.5439 7.618 19.501 7.2998C19.4633 7.02044 19.4097 6.97331 19.4033 6.96777L19.4023 6.9668C19.3952 6.95871 19.3446 6.90694 19.0703 6.87012C18.7514 6.82734 18.3105 6.8252 17.5918 6.8252V16.5752ZM4.75 13C4.33579 13 4 13.3358 4 13.75C4 14.1642 4.33579 14.5 4.75 14.5H8.75C9.16421 14.5 9.5 14.1642 9.5 13.75C9.5 13.3358 9.16421 13 8.75 13H4.75ZM4.75 9C4.33579 9 4 9.33579 4 9.75C4 10.1642 4.33579 10.5 4.75 10.5H12.75C13.1642 10.5 13.5 10.1642 13.5 9.75C13.5 9.33579 13.1642 9 12.75 9H4.75ZM4.75 5C4.33579 5 4 5.33579 4 5.75C4 6.16421 4.33579 6.5 4.75 6.5H12.75C13.1642 6.5 13.5 6.16421 13.5 5.75C13.5 5.33579 13.1642 5 12.75 5H4.75Z" fill="#0084F0"/>
</svg>
