<svg width="24" height="24" viewBox="0 0 24 24" fill="none" xmlns="http://www.w3.org/2000/svg">
<path d="M12 1.25C17.9371 1.25 22.75 6.06294 22.75 12C22.75 17.9371 17.9371 22.75 12 22.75C6.06294 22.75 1.25 17.9371 1.25 12C1.25 6.06294 6.06294 1.25 12 1.25ZM17.0391 16.4805C14.3716 13.6005 9.57283 13.7487 6.96191 16.4756L6.77441 16.6631C6.62923 16.8083 6.54964 17.0067 6.55469 17.2119C6.55985 17.4173 6.64938 17.6122 6.80176 17.75C8.1758 18.9925 9.99937 19.75 11.998 19.75C13.9967 19.75 15.8203 18.9924 17.1943 17.75C17.3467 17.6122 17.4362 17.4173 17.4414 17.2119C17.4465 17.0067 17.3669 16.8083 17.2217 16.6631L17.0391 16.4805ZM11.9893 6.25C10.1936 6.25023 8.73633 7.70421 8.73633 9.5C8.73633 11.2958 10.1936 12.7498 11.9893 12.75C13.7851 12.75 15.2432 11.2959 15.2432 9.5C15.2432 7.70407 13.7851 6.25 11.9893 6.25Z" fill="#3F3F3F"/>
</svg>
