<svg width="24" height="24" viewBox="0 0 24 24" fill="none" xmlns="http://www.w3.org/2000/svg">
<path fill-rule="evenodd" clip-rule="evenodd" d="M12 1.25C6.06294 1.25 1.25 6.06294 1.25 12C1.25 17.9371 6.06294 22.75 12 22.75C17.9371 22.75 22.75 17.9371 22.75 12C22.75 6.06294 17.9371 1.25 12 1.25ZM11.9897 6.25C10.1938 6.25 8.73612 7.70407 8.73612 9.5C8.73612 11.2959 10.1938 12.75 11.9897 12.75C13.7856 12.75 15.2433 11.2959 15.2433 9.5C15.2433 7.70407 13.7856 6.25 11.9897 6.25ZM17.039 16.4802C14.3715 13.6002 9.57277 13.7487 6.96186 16.4756L6.77436 16.6631C6.62909 16.8084 6.54977 17.0069 6.55492 17.2123C6.56008 17.4177 6.64927 17.612 6.80165 17.7498C8.17574 18.9923 9.99934 19.75 11.9982 19.75C13.997 19.75 15.8206 18.9923 17.1947 17.7498C17.347 17.612 17.4362 17.4177 17.4414 17.2123C17.4465 17.0069 17.3672 16.8084 17.222 16.6631L17.039 16.4802Z" fill="#161616"/>
</svg>
