<svg xmlns="http://www.w3.org/2000/svg" xmlns:xlink="http://www.w3.org/1999/xlink" width="1080" zoomAndPan="magnify" viewBox="0 0 810 1439.999935" height="1920" preserveAspectRatio="xMidYMid meet" version="1.2"><defs/><g id="6270304904"><g style="fill:#0084f0;fill-opacity:1;"><g transform="translate(226.830071, 752.792723)"><path style="stroke:none" d="M 5.125 -32 C 5.125 -39.757812 6.710938 -46.101562 9.890625 -51.03125 C 13.078125 -55.957031 17.441406 -59.582031 22.984375 -61.90625 C 28.535156 -64.238281 34.878906 -65.40625 42.015625 -65.40625 C 47.453125 -65.40625 52.144531 -64.707031 56.09375 -63.3125 L 56.09375 -47.015625 L 54.8125 -47.015625 C 53.5 -47.640625 51.988281 -48.164062 50.28125 -48.59375 C 48.570312 -49.019531 46.554688 -49.234375 44.234375 -49.234375 C 38.410156 -49.234375 33.90625 -47.773438 30.71875 -44.859375 C 27.539062 -41.953125 25.953125 -37.664062 25.953125 -32 C 25.953125 -26.414062 27.539062 -22.164062 30.71875 -19.25 C 33.90625 -16.34375 38.410156 -14.890625 44.234375 -14.890625 C 46.554688 -14.890625 48.570312 -15.101562 50.28125 -15.53125 C 51.988281 -15.957031 53.5 -16.445312 54.8125 -17 L 56.09375 -17 L 56.09375 -0.8125 C 52.144531 0.582031 47.453125 1.28125 42.015625 1.28125 C 34.722656 1.28125 28.300781 0.117188 22.75 -2.203125 C 17.207031 -4.535156 12.882812 -8.164062 9.78125 -13.09375 C 6.675781 -18.019531 5.125 -24.320312 5.125 -32 Z M 5.125 -32 "/></g></g><g style="fill:#0084f0;fill-opacity:1;"><g transform="translate(311.91752, 752.792723)"><path style="stroke:none" d="M 40.390625 1.390625 C 36.347656 1.390625 32.390625 0.960938 28.515625 0.109375 C 24.640625 -0.734375 21.164062 -2.222656 18.09375 -4.359375 C 15.03125 -6.492188 12.601562 -9.441406 10.8125 -13.203125 C 9.03125 -16.972656 8.140625 -21.804688 8.140625 -27.703125 L 8.140625 -44.234375 C 8.140625 -45.785156 8.101562 -47.757812 8.03125 -50.15625 C 7.957031 -52.5625 7.84375 -54.910156 7.6875 -57.203125 C 7.53125 -59.492188 7.253906 -61.335938 6.859375 -62.734375 L 7.328125 -63.671875 L 28.625 -63.671875 L 28.625 -28.28125 C 28.625 -24.707031 29.1875 -21.929688 30.3125 -19.953125 C 31.4375 -17.984375 32.988281 -16.628906 34.96875 -15.890625 C 36.945312 -15.148438 39.296875 -14.78125 42.015625 -14.78125 C 44.191406 -14.78125 46.25 -15.03125 48.1875 -15.53125 C 50.125 -16.039062 51.867188 -16.53125 53.421875 -17 L 50.625 -12.5625 C 50.082031 -13.726562 49.691406 -15.242188 49.453125 -17.109375 C 49.222656 -18.972656 49.109375 -21.300781 49.109375 -24.09375 L 49.109375 -44.234375 C 49.109375 -45.785156 49.070312 -47.757812 49 -50.15625 C 48.925781 -52.5625 48.789062 -54.910156 48.59375 -57.203125 C 48.394531 -59.492188 48.144531 -61.335938 47.84375 -62.734375 L 48.1875 -63.671875 L 69.609375 -63.671875 L 69.609375 -24.4375 C 69.609375 -22.882812 69.625 -20.882812 69.65625 -18.4375 C 69.695312 -16 69.8125 -13.613281 70 -11.28125 C 70.195312 -8.957031 70.453125 -7.097656 70.765625 -5.703125 L 70.421875 -4.765625 C 67.859375 -3.679688 64.925781 -2.671875 61.625 -1.734375 C 58.332031 -0.804688 54.878906 -0.0546875 51.265625 0.515625 C 47.660156 1.097656 44.035156 1.390625 40.390625 1.390625 Z M 40.390625 1.390625 "/></g></g><g style="fill:#b70000;fill-opacity:1;"><g transform="translate(382.619399, 754.192763)"><path style="stroke:none" d="M 41.90625 1.40625 C 34.46875 1.40625 27.988281 0.269531 22.46875 -2 C 16.957031 -4.269531 12.695312 -7.890625 9.6875 -12.859375 C 6.675781 -17.828125 5.171875 -24.300781 5.171875 -32.28125 C 5.171875 -39.25 6.554688 -45.21875 9.328125 -50.1875 C 12.109375 -55.15625 16.0625 -58.988281 21.1875 -61.6875 C 26.3125 -64.382812 32.316406 -65.773438 39.203125 -65.859375 C 42.179688 -65.929688 44.726562 -65.710938 46.84375 -65.203125 C 48.957031 -64.703125 50.40625 -64.296875 51.1875 -63.984375 L 51.0625 -48.953125 C 49.96875 -49.335938 48.773438 -49.707031 47.484375 -50.0625 C 46.191406 -50.414062 44.609375 -50.59375 42.734375 -50.59375 C 37.097656 -50.59375 32.925781 -48.96875 30.21875 -45.71875 C 27.519531 -42.476562 26.171875 -38 26.171875 -32.28125 C 26.171875 -28.675781 26.71875 -25.484375 27.8125 -22.703125 C 28.914062 -19.929688 30.679688 -17.765625 33.109375 -16.203125 C 35.535156 -14.640625 38.664062 -13.859375 42.5 -13.859375 C 44.6875 -13.859375 46.484375 -14.015625 47.890625 -14.328125 C 49.304688 -14.640625 50.519531 -14.988281 51.53125 -15.375 L 50.125 -10.328125 C 49.257812 -11.660156 48.75 -13.285156 48.59375 -15.203125 C 48.4375 -17.117188 48.359375 -19.210938 48.359375 -21.484375 L 48.359375 -67.5 C 48.359375 -69.53125 48.300781 -71.9375 48.1875 -74.71875 C 48.070312 -77.5 47.9375 -80.160156 47.78125 -82.703125 C 47.625 -85.242188 47.390625 -87.101562 47.078125 -88.28125 L 47.421875 -89.21875 L 69.03125 -89.21875 L 69.03125 -22.78125 C 69.03125 -21.207031 69.046875 -19.226562 69.078125 -16.84375 C 69.117188 -14.457031 69.195312 -12.109375 69.3125 -9.796875 C 69.4375 -7.492188 69.65625 -5.632812 69.96875 -4.21875 L 69.5 -3.28125 C 66.207031 -1.957031 62.269531 -0.847656 57.6875 0.046875 C 53.113281 0.953125 47.851562 1.40625 41.90625 1.40625 Z M 41.90625 1.40625 "/></g></g><g style="fill:#b70000;fill-opacity:1;"><g transform="translate(452.427313, 752.792723)"><path style="stroke:none" d="M 35.734375 1.390625 C 25.492188 1.390625 17.769531 -0.140625 12.5625 -3.203125 C 7.363281 -6.265625 4.765625 -11.519531 4.765625 -18.96875 C 4.765625 -23.707031 5.945312 -27.550781 8.3125 -30.5 C 10.6875 -33.445312 13.96875 -35.597656 18.15625 -36.953125 C 22.34375 -38.304688 27.113281 -38.984375 32.46875 -38.984375 C 35.113281 -38.984375 37.519531 -38.828125 39.6875 -38.515625 C 41.863281 -38.210938 43.921875 -37.828125 45.859375 -37.359375 L 45.859375 -25.375 C 44.691406 -25.757812 43.140625 -26.109375 41.203125 -26.421875 C 39.265625 -26.734375 37.398438 -26.890625 35.609375 -26.890625 C 31.503906 -26.890625 28.460938 -26.304688 26.484375 -25.140625 C 24.503906 -23.972656 23.515625 -22.035156 23.515625 -19.328125 C 23.515625 -16.609375 24.503906 -14.703125 26.484375 -13.609375 C 28.460938 -12.523438 31.273438 -11.984375 34.921875 -11.984375 C 37.328125 -11.984375 39.65625 -12.234375 41.90625 -12.734375 C 44.15625 -13.242188 46.054688 -14.117188 47.609375 -15.359375 L 45.28125 -9.65625 C 44.738281 -10.894531 44.3125 -12.019531 44 -13.03125 C 43.6875 -14.039062 43.453125 -15.109375 43.296875 -16.234375 C 43.140625 -17.359375 43.039062 -18.71875 43 -20.3125 C 42.96875 -21.90625 42.953125 -23.898438 42.953125 -26.296875 L 42.953125 -38.53125 C 42.953125 -41.707031 42.40625 -44.148438 41.3125 -45.859375 C 40.226562 -47.566406 38.582031 -48.710938 36.375 -49.296875 C 34.164062 -49.878906 31.390625 -50.171875 28.046875 -50.171875 C 24.710938 -50.171875 21.550781 -49.878906 18.5625 -49.296875 C 15.570312 -48.710938 13.148438 -47.992188 11.296875 -47.140625 L 10.125 -47.140625 L 10.125 -62.734375 C 12.914062 -63.515625 16.035156 -64.15625 19.484375 -64.65625 C 22.941406 -65.15625 26.613281 -65.40625 30.5 -65.40625 C 35.226562 -65.40625 39.570312 -64.976562 43.53125 -64.125 C 47.488281 -63.269531 50.921875 -61.816406 53.828125 -59.765625 C 56.742188 -57.710938 58.972656 -54.878906 60.515625 -51.265625 C 62.066406 -47.660156 62.84375 -43.023438 62.84375 -37.359375 L 62.84375 -23.28125 C 62.84375 -21.644531 62.878906 -19.625 62.953125 -17.21875 C 63.035156 -14.820312 63.15625 -12.457031 63.3125 -10.125 C 63.46875 -7.800781 63.738281 -5.941406 64.125 -4.546875 L 63.671875 -3.609375 C 60.953125 -2.597656 58.078125 -1.722656 55.046875 -0.984375 C 52.023438 -0.253906 48.882812 0.320312 45.625 0.75 C 42.363281 1.175781 39.066406 1.390625 35.734375 1.390625 Z M 35.734375 1.390625 "/></g></g><g style="fill:#b70000;fill-opacity:1;"><g transform="translate(515.71315, 752.792723)"><path style="stroke:none" d="M 41.546875 1.390625 C 34.179688 1.390625 27.757812 0.265625 22.28125 -1.984375 C 16.8125 -4.234375 12.582031 -7.820312 9.59375 -12.75 C 6.613281 -17.675781 5.125 -24.09375 5.125 -32 C 5.125 -38.90625 6.5 -44.820312 9.25 -49.75 C 12.007812 -54.675781 15.925781 -58.476562 21 -61.15625 C 26.082031 -63.832031 32.039062 -65.210938 38.875 -65.296875 C 41.820312 -65.367188 44.34375 -65.15625 46.4375 -64.65625 C 48.53125 -64.15625 49.96875 -63.75 50.75 -63.4375 L 50.625 -48.53125 C 49.539062 -48.914062 48.359375 -49.285156 47.078125 -49.640625 C 45.796875 -49.992188 44.222656 -50.171875 42.359375 -50.171875 C 36.773438 -50.171875 32.644531 -48.554688 29.96875 -45.328125 C 27.289062 -42.109375 25.953125 -37.664062 25.953125 -32 C 25.953125 -28.4375 26.492188 -25.273438 27.578125 -22.515625 C 28.671875 -19.765625 30.421875 -17.613281 32.828125 -16.0625 C 35.234375 -14.507812 38.335938 -13.734375 42.140625 -13.734375 C 44.304688 -13.734375 46.085938 -13.890625 47.484375 -14.203125 C 48.878906 -14.515625 50.082031 -14.863281 51.09375 -15.25 L 49.703125 -10.25 C 48.847656 -11.5625 48.34375 -13.164062 48.1875 -15.0625 C 48.03125 -16.96875 47.953125 -19.046875 47.953125 -21.296875 L 47.953125 -66.921875 C 47.953125 -68.941406 47.894531 -71.328125 47.78125 -74.078125 C 47.664062 -76.835938 47.53125 -79.476562 47.375 -82 C 47.21875 -84.519531 46.984375 -86.363281 46.671875 -87.53125 L 47.015625 -88.453125 L 68.4375 -88.453125 L 68.4375 -22.578125 C 68.4375 -21.023438 68.453125 -19.066406 68.484375 -16.703125 C 68.523438 -14.335938 68.601562 -12.007812 68.71875 -9.71875 C 68.84375 -7.425781 69.0625 -5.582031 69.375 -4.1875 L 68.90625 -3.265625 C 65.644531 -1.941406 61.742188 -0.835938 57.203125 0.046875 C 52.660156 0.941406 47.441406 1.390625 41.546875 1.390625 Z M 41.546875 1.390625 "/></g></g><g style="fill:#0084f0;fill-opacity:1;"><g transform="translate(282.672621, 752.592803)"><path style="stroke:none" d="M 19.09375 -72.859375 C 15.90625 -72.859375 13.300781 -73.769531 11.28125 -75.59375 C 9.269531 -77.414062 8.265625 -80.035156 8.265625 -83.453125 C 8.265625 -86.867188 9.269531 -89.488281 11.28125 -91.3125 C 13.300781 -93.132812 15.90625 -94.046875 19.09375 -94.046875 C 22.34375 -94.046875 24.976562 -93.132812 27 -91.3125 C 29.019531 -89.488281 30.03125 -86.867188 30.03125 -83.453125 C 30.03125 -80.035156 29.019531 -77.414062 27 -75.59375 C 24.976562 -73.769531 22.34375 -72.859375 19.09375 -72.859375 Z M 8.84375 0 L 8.84375 -44.234375 C 8.84375 -45.785156 8.820312 -47.757812 8.78125 -50.15625 C 8.75 -52.5625 8.632812 -54.910156 8.4375 -57.203125 C 8.238281 -59.492188 7.988281 -61.335938 7.6875 -62.734375 L 8.03125 -63.671875 L 29.328125 -63.671875 L 29.328125 0 Z M 8.84375 0 "/></g></g><path style=" stroke:none;fill-rule:nonzero;fill:#ffa800;fill-opacity:1;" d="M 307.507812 657.28125 L 321.902344 656.695312 C 322.136719 656.683594 322.328125 656.847656 322.332031 657.058594 C 322.332031 657.078125 322.332031 657.097656 322.332031 657.117188 L 322.214844 657.984375 C 322.210938 658.277344 322.296875 658.558594 322.460938 658.800781 L 324.960938 662.410156 C 325.136719 662.660156 325.222656 662.957031 325.21875 663.265625 C 325.210938 663.507812 325.144531 663.746094 325.027344 663.96875 L 323.480469 666.824219 L 320.675781 671.230469 C 320.363281 671.722656 319.941406 672.15625 319.441406 672.503906 L 318.929688 672.859375 C 318.429688 673.207031 318.007812 673.640625 317.691406 674.132812 L 316.46875 676.0625 C 316.226562 676.4375 315.925781 676.78125 315.574219 677.074219 L 312.0625 680.019531 C 311.539062 680.457031 311.25 681.074219 311.273438 681.699219 C 311.296875 682.375 310.957031 683.039062 310.363281 683.476562 L 310.160156 683.621094 C 309.722656 683.945312 309.390625 684.378906 309.210938 684.859375 L 309.101562 685.152344 C 308.933594 685.664062 308.40625 686.019531 307.832031 686.007812 L 307.042969 685.992188 C 306.796875 685.984375 306.546875 686.019531 306.308594 686.089844 L 305.425781 686.347656 C 304.511719 686.613281 303.542969 686.539062 302.734375 686.136719 L 301.46875 685.636719 C 300.410156 685.214844 299.179688 685.234375 298.082031 685.691406 L 297.816406 685.800781 C 297.648438 685.871094 297.472656 685.921875 297.292969 685.949219 L 295.40625 686.238281 C 295.25 686.261719 295.144531 686.402344 295.171875 686.539062 L 295.328125 687.273438 C 295.363281 687.453125 295.085938 687.546875 295.003906 687.382812 C 294.996094 687.363281 294.980469 687.347656 294.960938 687.332031 L 294.066406 686.644531 C 293.578125 686.269531 293.195312 685.792969 292.945312 685.25 L 292.46875 684.210938 L 291.933594 682.472656 L 289.824219 677.585938 C 289.585938 677.03125 289.71875 676.386719 290.167969 675.914062 C 290.308594 675.765625 290.480469 675.636719 290.667969 675.539062 L 290.902344 675.421875 C 291.089844 675.324219 291.25 675.179688 291.359375 675.007812 L 291.417969 674.917969 C 291.632812 674.574219 291.59375 674.15625 291.3125 673.882812 L 290.226562 672.816406 C 290.175781 672.769531 290.210938 672.683594 290.285156 672.671875 C 290.347656 672.660156 290.386719 672.597656 290.359375 672.542969 L 289.730469 671.335938 C 289.542969 670.972656 289.140625 670.75 288.6875 670.761719 L 286.691406 670.808594 L 283.484375 670.664062 C 283.433594 670.664062 283.40625 670.613281 283.433594 670.570312 L 284.21875 669.523438 C 284.34375 669.355469 284.484375 669.195312 284.632812 669.046875 L 285.253906 668.425781 C 285.414062 668.265625 285.605469 668.128906 285.816406 668.019531 C 286.265625 667.792969 286.621094 667.425781 286.808594 666.992188 L 288.746094 662.519531 C 289.015625 661.898438 289.117188 661.238281 289.039062 660.589844 L 288.753906 658.175781 C 288.753906 657.949219 288.972656 657.761719 289.214844 657.777344 L 294.039062 658.097656 Z M 307.507812 657.28125 "/></g></svg>