<svg width="251" height="74" viewBox="0 0 251 74" fill="none" xmlns="http://www.w3.org/2000/svg">
<path d="M2.8 53.68C2.8 48.8267 3.80333 44.93 5.81 41.99C7.86333 39.0033 10.6167 36.8567 14.07 35.55C17.57 34.1967 21.4667 33.52 25.76 33.52C28.98 33.52 31.78 33.8933 34.16 34.64V46.12H33.32C32.62 45.84 31.8267 45.5833 30.94 45.35C30.0533 45.1167 28.98 45 27.72 45C24.5 45 22.05 45.7467 20.37 47.24C18.7367 48.7333 17.92 50.88 17.92 53.68C17.92 56.48 18.7367 58.6267 20.37 60.12C22.05 61.6133 24.5 62.36 27.72 62.36C28.98 62.36 30.0533 62.2433 30.94 62.01C31.8267 61.7767 32.62 61.52 33.32 61.24H34.16V72.72C31.78 73.4667 28.98 73.84 25.76 73.84C21.3267 73.84 17.3833 73.1867 13.93 71.88C10.4767 70.5267 7.74667 68.38 5.74 65.44C3.78 62.4533 2.8 58.5333 2.8 53.68ZM45.9359 29.6C43.6959 29.6 41.8759 28.9933 40.4759 27.78C39.0759 26.52 38.3759 24.7 38.3759 22.32C38.3759 19.94 39.0759 18.1433 40.4759 16.93C41.8759 15.67 43.6959 15.04 45.9359 15.04C48.1759 15.04 49.9959 15.67 51.3959 16.93C52.7959 18.1433 53.4959 19.94 53.4959 22.32C53.4959 24.7 52.7959 26.52 51.3959 27.78C49.9959 28.9933 48.1759 29.6 45.9359 29.6ZM38.5159 73V46.12C38.5159 45.1867 38.4925 44.02 38.4459 42.62C38.3992 41.22 38.3059 39.8433 38.1659 38.49C38.0725 37.1367 37.9092 36.04 37.6759 35.2L37.9559 34.64H53.3559V73H38.5159ZM79.0984 73.84C76.625 73.84 74.175 73.5833 71.7484 73.07C69.3684 72.5567 67.1984 71.6467 65.2384 70.34C63.2784 69.0333 61.715 67.2133 60.5484 64.88C59.3817 62.5467 58.7984 59.56 58.7984 55.92V46.12C58.7984 45.1867 58.775 44.02 58.7284 42.62C58.6817 41.22 58.5884 39.8433 58.4484 38.49C58.355 37.1367 58.1917 36.04 57.9584 35.2L58.2384 34.64H73.6384V55.64C73.6384 57.4133 73.9184 58.79 74.4784 59.77C75.0384 60.75 75.8084 61.4267 76.7884 61.8C77.7684 62.1733 78.865 62.36 80.0784 62.36C81.3384 62.36 82.4584 62.1967 83.4384 61.87C84.465 61.5433 85.3984 61.24 86.2384 60.96L84.2784 64.11C83.9517 63.3633 83.6717 62.4067 83.4384 61.24C83.2517 60.0267 83.1584 58.44 83.1584 56.48V46.12C83.1584 45.1867 83.135 44.02 83.0884 42.62C83.0417 41.22 82.9484 39.8433 82.8084 38.49C82.715 37.1367 82.5517 36.04 82.3184 35.2L82.5984 34.64H97.9984V57.88C97.9984 58.8133 98.0217 60.0033 98.0684 61.45C98.115 62.8967 98.2084 64.32 98.3484 65.72C98.4884 67.12 98.6517 68.24 98.8384 69.08L98.5584 69.64C96.8784 70.3867 95.0117 71.0867 92.9584 71.74C90.9517 72.3467 88.7817 72.8367 86.4484 73.21C84.115 73.63 81.665 73.84 79.0984 73.84Z" fill="#0084F0"/>
<path d="M124.772 73.84C120.198 73.84 116.185 73.21 112.732 71.95C109.278 70.69 106.595 68.59 104.682 65.65C102.768 62.71 101.812 58.72 101.812 53.68C101.812 49.5733 102.628 46.0267 104.262 43.04C105.942 40.0533 108.298 37.7433 111.332 36.11C114.412 34.4767 118.052 33.6367 122.252 33.59C124.072 33.5433 125.612 33.6833 126.872 34.01C128.132 34.3367 128.925 34.5467 129.252 34.64V45C128.552 44.7667 127.875 44.58 127.222 44.44C126.615 44.2533 125.892 44.16 125.052 44.16C122.158 44.16 120.082 45.0233 118.822 46.75C117.562 48.4767 116.932 50.7867 116.932 53.68C116.932 55.36 117.165 56.9233 117.632 58.37C118.145 59.8167 118.985 60.9833 120.152 61.87C121.365 62.7567 122.998 63.2 125.052 63.2C126.172 63.2 127.035 63.1533 127.642 63.06C128.295 62.92 128.832 62.78 129.252 62.64L128.552 66.14C127.945 65.3 127.572 64.32 127.432 63.2C127.338 62.0333 127.292 60.7267 127.292 59.28V33.17C127.292 31.8167 127.245 30.2767 127.152 28.55C127.105 26.8233 127.012 25.19 126.872 23.65C126.778 22.11 126.638 21.0133 126.452 20.36L126.732 19.8H142.132V59.56C142.132 60.4933 142.132 61.66 142.132 63.06C142.178 64.46 142.225 65.8367 142.272 67.19C142.365 68.5433 142.505 69.64 142.692 70.48L142.412 71.04C140.452 71.88 138.002 72.5567 135.062 73.07C132.122 73.5833 128.692 73.84 124.772 73.84ZM165.21 73.84C158.77 73.84 153.893 72.9533 150.58 71.18C147.267 69.36 145.61 66.14 145.61 61.52C145.61 58.6267 146.333 56.2933 147.78 54.52C149.273 52.7467 151.28 51.4633 153.8 50.67C156.367 49.8767 159.237 49.48 162.41 49.48C163.53 49.48 164.65 49.5267 165.77 49.62C166.89 49.6667 168.01 49.8067 169.13 50.04V58.16C168.71 58.02 168.057 57.9033 167.17 57.81C166.33 57.67 165.49 57.6 164.65 57.6C162.69 57.6 161.267 57.9033 160.38 58.51C159.493 59.07 159.05 59.98 159.05 61.24C159.05 62.5 159.517 63.3867 160.45 63.9C161.383 64.3667 162.69 64.6 164.37 64.6C165.677 64.6 166.913 64.46 168.08 64.18C169.293 63.9 170.25 63.3167 170.95 62.43L169.41 66.49C169.037 65.6033 168.733 64.8333 168.5 64.18C168.267 63.48 168.08 62.7567 167.94 62.01C167.847 61.2633 167.777 60.33 167.73 59.21C167.73 58.09 167.73 56.62 167.73 54.8V49.76C167.73 48.2667 167.427 47.1233 166.82 46.33C166.213 45.49 165.303 44.93 164.09 44.65C162.877 44.3233 161.383 44.16 159.61 44.16C157.51 44.16 155.573 44.3233 153.8 44.65C152.073 44.93 150.65 45.3267 149.53 45.84H148.69V34.92C150.37 34.5 152.26 34.1733 154.36 33.94C156.46 33.66 158.77 33.52 161.29 33.52C164.37 33.52 167.17 33.8 169.69 34.36C172.257 34.8733 174.45 35.7833 176.27 37.09C178.137 38.35 179.56 40.1 180.54 42.34C181.52 44.58 182.01 47.4267 182.01 50.88V59C182.01 60.0267 182.033 61.2633 182.08 62.71C182.127 64.11 182.197 65.51 182.29 66.91C182.43 68.2633 182.617 69.36 182.85 70.2L182.57 70.76C180.89 71.3667 179.14 71.9033 177.32 72.37C175.5 72.8367 173.587 73.1867 171.58 73.42C169.573 73.7 167.45 73.84 165.21 73.84ZM208.211 73.84C203.638 73.84 199.625 73.21 196.171 71.95C192.718 70.69 190.035 68.59 188.121 65.65C186.208 62.71 185.251 58.72 185.251 53.68C185.251 49.5733 186.068 46.0267 187.701 43.04C189.381 40.0533 191.738 37.7433 194.771 36.11C197.851 34.4767 201.491 33.6367 205.691 33.59C207.511 33.5433 209.051 33.6833 210.311 34.01C211.571 34.3367 212.365 34.5467 212.691 34.64V45C211.991 44.7667 211.315 44.58 210.661 44.44C210.055 44.2533 209.331 44.16 208.491 44.16C205.598 44.16 203.521 45.0233 202.261 46.75C201.001 48.4767 200.371 50.7867 200.371 53.68C200.371 55.36 200.605 56.9233 201.071 58.37C201.585 59.8167 202.425 60.9833 203.591 61.87C204.805 62.7567 206.438 63.2 208.491 63.2C209.611 63.2 210.475 63.1533 211.081 63.06C211.735 62.92 212.271 62.78 212.691 62.64L211.991 66.14C211.385 65.3 211.011 64.32 210.871 63.2C210.778 62.0333 210.731 60.7267 210.731 59.28V33.17C210.731 31.8167 210.685 30.2767 210.591 28.55C210.545 26.8233 210.451 25.19 210.311 23.65C210.218 22.11 210.078 21.0133 209.891 20.36L210.171 19.8H225.571V59.56C225.571 60.4933 225.571 61.66 225.571 63.06C225.618 64.46 225.665 65.8367 225.711 67.19C225.805 68.5433 225.945 69.64 226.131 70.48L225.851 71.04C223.891 71.88 221.441 72.5567 218.501 73.07C215.561 73.5833 212.131 73.84 208.211 73.84Z" fill="#B70000"/>
<path d="M50.1327 9.3008L60.5283 8.88002C60.698 8.87315 60.8354 8.98925 60.839 9.1427V9.1427C60.8393 9.15616 60.8386 9.16968 60.8368 9.18315L60.7547 9.80404V9.80404C60.7501 10.0139 60.8116 10.2171 60.9321 10.3897L62.7367 12.9757C62.8626 13.1561 62.9268 13.3685 62.9219 13.5879V13.5879C62.9179 13.7616 62.8707 13.9345 62.7838 14.0937L61.6669 16.1395L59.6429 19.2956C59.4158 19.6497 59.1119 19.9609 58.7508 20.2089L58.3796 20.4639C58.0185 20.7119 57.7145 21.0231 57.4875 21.3772L56.6024 22.7574C56.4295 23.027 56.2117 23.2723 55.9572 23.4839L53.4201 25.5938C53.0437 25.9068 52.8341 26.3496 52.8502 26.7978V26.7978C52.8676 27.2817 52.6221 27.7567 52.1929 28.07L52.0482 28.1756C51.7303 28.4076 51.4909 28.7168 51.3608 29.0631L51.2829 29.2706V29.2706C51.1624 29.6371 50.7809 29.8927 50.3668 29.8842L49.7955 29.8726C49.6171 29.8689 49.4375 29.8927 49.2643 29.9429L48.6282 30.127C47.9688 30.318 47.268 30.2641 46.684 29.9774V29.9774L45.7703 29.6181C45.0062 29.3176 44.1182 29.332 43.3255 29.6577L43.1312 29.7375C43.0104 29.7871 42.8838 29.8223 42.7547 29.8421L41.3913 30.051C41.2794 30.0681 41.2018 30.1673 41.2228 30.2663L41.3343 30.7911C41.3615 30.9194 41.1608 30.9873 41.1011 30.8699V30.8699C41.0941 30.8561 41.0839 30.844 41.0711 30.8343L40.4235 30.3416C40.0702 30.073 39.7936 29.7314 39.6144 29.3426L39.2712 28.5979L38.885 27.3517L37.3596 23.8506C37.1868 23.4541 37.2831 22.9896 37.6081 22.652V22.652C37.7113 22.5448 37.8339 22.4543 37.9701 22.3849L38.1379 22.2994C38.2748 22.2296 38.3893 22.1273 38.4683 22.0041L38.5105 21.9384C38.6676 21.6934 38.6373 21.3936 38.4357 21.1973L37.6508 20.4332C37.6145 20.3978 37.639 20.3376 37.6934 20.3283V20.3283C37.7393 20.3205 37.7663 20.2749 37.7469 20.2379L37.2934 19.3732C37.1568 19.1126 36.8652 18.953 36.5396 18.9604L35.0979 18.9932L32.7824 18.8917C32.7449 18.8901 32.7242 18.8535 32.7437 18.8232V18.8232L33.3119 18.0719C33.4026 17.952 33.5026 17.8378 33.6112 17.7304L34.0585 17.2877C34.1763 17.1712 34.314 17.0727 34.4657 16.9964V16.9964C34.7909 16.8329 35.0457 16.5703 35.1819 16.2583L36.5814 13.0545C36.7755 12.61 36.8483 12.1353 36.7933 11.6725L36.5877 9.94239V9.94239C36.5865 9.78023 36.7438 9.64599 36.9215 9.65763L40.4047 9.88598L50.1327 9.3008Z" fill="#FFA800"/>
</svg>
