<?xml version="1.0" encoding="UTF-8"?>
<!DOCTYPE svg PUBLIC "-//W3C//DTD SVG 1.1//EN" "http://www.w3.org/Graphics/SVG/1.1/DTD/svg11.dtd">
<svg xmlns="http://www.w3.org/2000/svg" version="1.1" width="1024px" height="1024px" style="shape-rendering:geometricPrecision; text-rendering:geometricPrecision; image-rendering:optimizeQuality; fill-rule:evenodd; clip-rule:evenodd" xmlns:xlink="http://www.w3.org/1999/xlink">
<g><path style="opacity:1" fill="#fa3a30" d="M 283.5,398.5 C 291.507,398.334 299.507,398.5 307.5,399C 309.286,399.785 310.786,400.951 312,402.5C 313.542,411.104 313.876,419.77 313,428.5C 312.06,431.773 309.893,433.606 306.5,434C 298.103,434.87 289.77,434.537 281.5,433C 280.667,432.167 279.833,431.333 279,430.5C 277.393,421.936 277.06,413.27 278,404.5C 278.333,403.5 278.667,402.5 279,401.5C 280.652,400.601 282.152,399.601 283.5,398.5 Z"/></g>
<g><path style="opacity:1" fill="#0f30ed" d="M 205.5,445.5 C 223.173,443.836 239.506,447.669 254.5,457C 265.993,465.509 266.326,474.175 255.5,483C 250.994,485.126 246.661,484.793 242.5,482C 228.373,471.704 213.04,469.704 196.5,476C 175.443,489.164 168.61,507.664 176,531.5C 188.055,555.303 206.889,563.137 232.5,555C 238.177,551.326 244.177,548.493 250.5,546.5C 258.447,547.68 262.78,552.347 263.5,560.5C 261.558,567.614 257.224,572.781 250.5,576C 217.615,591.102 188.115,586.269 162,561.5C 140.286,533.116 138.953,503.783 158,473.5C 170.465,458.354 186.298,449.021 205.5,445.5 Z"/></g>
<g><path style="opacity:1" fill="#1130ec" d="M 666.5,445.5 C 676.649,444.048 684.816,447.381 691,455.5C 706.092,493.11 720.592,530.943 734.5,569C 732.325,580.167 725.658,584.5 714.5,582C 712.04,580.542 709.873,578.709 708,576.5C 705.526,570.243 703.359,563.91 701.5,557.5C 681.831,557.333 662.164,557.5 642.5,558C 640.201,564.562 637.701,571.062 635,577.5C 625.602,585.931 617.268,584.931 610,574.5C 609.209,570.074 609.543,565.741 611,561.5C 624.555,527.721 637.555,493.721 650,459.5C 653.593,452.394 659.093,447.727 666.5,445.5 Z M 670.5,471.5 C 678.467,491.397 685.467,511.73 691.5,532.5C 678.15,532.833 664.817,532.499 651.5,531.5C 658.453,511.686 664.786,491.686 670.5,471.5 Z"/></g>
<g><path style="opacity:1" fill="#1832ed" d="M 291.5,446.5 C 300.93,445.452 306.763,449.452 309,458.5C 309.667,496.5 309.667,534.5 309,572.5C 304.82,582.327 297.653,585.16 287.5,581C 282.28,576.789 279.947,571.289 280.5,564.5C 281.301,528.177 281.801,491.844 282,455.5C 283.871,451.006 287.038,448.006 291.5,446.5 Z"/></g>
<g><path style="opacity:1" fill="#0e30ed" d="M 361.5,454.5 C 360.624,454.369 359.957,454.702 359.5,455.5C 360.324,479.457 360.824,503.457 361,527.5C 361.333,529.833 361.667,532.167 362,534.5C 362.49,533.207 362.657,531.873 362.5,530.5C 367.565,551.347 380.898,560.181 402.5,557C 413.834,553.512 421,546.012 424,534.5C 424.191,528.917 424.691,523.417 425.5,518C 425.762,503.48 425.428,488.48 424.5,473C 424.427,466.77 424.927,460.603 426,454.5C 430.717,447.15 437.217,444.983 445.5,448C 448.433,450.264 450.6,453.098 452,456.5C 452.667,482.833 452.667,509.167 452,535.5C 447.881,558.28 435.048,573.78 413.5,582C 377.039,590.52 351.539,577.687 337,543.5C 336.118,540.211 335.452,536.877 335,533.5C 334.333,507.833 334.333,482.167 335,456.5C 339.248,447.46 346.082,444.626 355.5,448C 358.046,449.711 360.046,451.877 361.5,454.5 Z"/></g>
<g><path style="opacity:1" fill="#1031ed" d="M 753.5,572.5 C 754.833,534.167 754.833,495.833 753.5,457.5C 754.156,452.713 756.822,449.546 761.5,448C 780.5,447.333 799.5,447.333 818.5,448C 847.386,451.886 866.219,467.72 875,495.5C 882.891,529.18 872.391,555.346 843.5,574C 826.483,581.67 808.65,584.503 790,582.5C 781.167,582.333 772.333,582.167 763.5,582C 758.352,580.684 755.018,577.517 753.5,572.5 Z M 813.5,556.5 C 802.833,556.5 792.167,556.5 781.5,556.5C 781.5,528.167 781.5,499.833 781.5,471.5C 793.503,471.857 805.503,472.357 817.5,473C 838.214,478.739 848.881,492.405 849.5,514C 848.331,537.579 836.331,551.746 813.5,556.5 Z"/></g>
<g><path style="opacity:1" fill="#fa362e" d="M 482.5,445.5 C 491.506,445.334 500.506,445.5 509.5,446C 511.259,447.008 512.426,448.508 513,450.5C 513.667,458.833 513.667,467.167 513,475.5C 512.215,477.286 511.049,478.786 509.5,480C 500.936,481.607 492.27,481.94 483.5,481C 481.714,480.215 480.214,479.049 479,477.5C 477,468.167 477,458.833 479,449.5C 480.376,448.295 481.542,446.962 482.5,445.5 Z"/></g>
<g><path style="opacity:1" fill="#3c39ee" d="M 361.5,454.5 C 362.481,479.789 362.815,505.122 362.5,530.5C 362.657,531.873 362.49,533.207 362,534.5C 361.667,532.167 361.333,529.833 361,527.5C 360.824,503.457 360.324,479.457 359.5,455.5C 359.957,454.702 360.624,454.369 361.5,454.5 Z"/></g>
<g><path style="opacity:0.788" fill="#3f30ec" d="M 753.5,457.5 C 754.833,495.833 754.833,534.167 753.5,572.5C 753.23,534.092 753.23,495.759 753.5,457.5 Z"/></g>
<g><path style="opacity:1" fill="#0930ec" d="M 478.5,569.5 C 479.833,546.5 479.833,523.5 478.5,500.5C 479.701,492.958 484.201,488.958 492,488.5C 499.799,488.958 504.299,492.958 505.5,500.5C 504.338,519.329 504.171,538.329 505,557.5C 515.757,558.653 526.59,558.82 537.5,558C 541.449,557.193 541.449,556.693 537.5,556.5C 563.964,550.941 575.798,534.608 573,507.5C 567.461,484.317 552.628,472.484 528.5,472C 519.702,467.271 517.535,460.438 522,451.5C 523.731,449.383 525.898,447.883 528.5,447C 559.318,446.85 581.818,460.35 596,487.5C 604.955,510.866 602.955,533.199 590,554.5C 578.606,568.287 564.106,577.12 546.5,581C 526.871,582.59 507.205,582.924 487.5,582C 481.692,579.894 478.692,575.727 478.5,569.5 Z"/></g>
<g><path style="opacity:0.929" fill="#5136ef" d="M 478.5,500.5 C 479.833,523.5 479.833,546.5 478.5,569.5C 478.19,546.929 478.19,523.929 478.5,500.5 Z"/></g>
<g><path style="opacity:0.894" fill="#5542ee" d="M 505.5,500.5 C 506.462,519.133 506.795,537.799 506.5,556.5C 516.833,556.5 527.167,556.5 537.5,556.5C 541.449,556.693 541.449,557.193 537.5,558C 526.59,558.82 515.757,558.653 505,557.5C 504.171,538.329 504.338,519.329 505.5,500.5 Z"/></g>
<g><path style="opacity:1" fill="#0114ea" d="M 781.5,556.5 C 792.167,556.5 802.833,556.5 813.5,556.5C 818.794,556.682 818.794,557.182 813.5,558C 802.257,558.82 791.09,558.653 780,557.5C 779.333,528.833 779.333,500.167 780,471.5C 780.168,500.003 780.668,528.336 781.5,556.5 Z"/></g>
<g><path style="opacity:1" fill="#fed415" d="M 876.5,612.5 C 633,611.667 389.334,611.167 145.5,611C 144.004,608.346 142.337,605.846 140.5,603.5C 139.974,600.192 141.307,598.026 144.5,597C 389.167,596.333 633.833,596.333 878.5,597C 879.931,597.465 881.097,598.299 882,599.5C 882.667,602.833 882.667,606.167 882,609.5C 880.736,611.607 878.903,612.607 876.5,612.5 Z"/></g>
<g><path style="opacity:0.984" fill="#ffda6d" d="M 140.5,603.5 C 142.337,605.846 144.004,608.346 145.5,611C 389.334,611.167 633,611.667 876.5,612.5C 634.663,613.259 392.497,613.592 150,613.5C 143.891,613.559 140.391,610.559 139.5,604.5C 139.624,603.893 139.957,603.56 140.5,603.5 Z"/></g>
</svg>
