<svg width="24" height="18" viewBox="0 0 24 18" fill="none" xmlns="http://www.w3.org/2000/svg">
<path d="M7.43945 11.2236C10.0772 9.59258 13.4228 9.59258 16.0605 11.2236C16.1383 11.2717 16.2366 11.3294 16.3496 11.3955C16.8619 11.6953 17.6756 12.1713 18.2305 12.7354C18.5788 13.0895 18.9268 13.5721 18.9902 14.1738C19.058 14.818 18.7843 15.4147 18.2627 15.9307C17.4011 16.783 16.3339 17.4999 14.9346 17.5H8.56543C7.16609 17.5 6.09889 16.783 5.2373 15.9307C4.71574 15.4147 4.44196 14.818 4.50977 14.1738C4.57322 13.572 4.92113 13.0895 5.26953 12.7354C5.82429 12.1715 6.63712 11.6953 7.14941 11.3955C7.26258 11.3293 7.36169 11.2717 7.43945 11.2236ZM2.31934 10.0527C3.79655 9.06319 5.55894 8.77127 7.2041 9.17676C7.59196 9.2724 7.78652 9.32074 7.80371 9.45703C7.82054 9.59319 7.6311 9.69477 7.25293 9.89746C6.96605 10.0512 6.68421 10.2121 6.47754 10.3398C5.98286 10.6291 5.05082 11.1744 4.37793 11.8584C3.9437 12.2999 3.37293 13.0339 3.2666 14.043C3.23379 14.3547 3.24905 14.654 3.30273 14.9375C3.35642 15.221 3.38328 15.3631 3.31152 15.4375C3.23974 15.5117 3.11968 15.4934 2.88086 15.457C1.85725 15.3011 1.1644 14.7432 0.59668 14.1348C0.172318 13.6799 -0.0464557 13.1562 0.0078125 12.5967C0.0588649 12.0712 0.339203 11.6473 0.620117 11.3379C1.06349 10.8497 1.71787 10.4363 2.10938 10.1885C2.19283 10.1356 2.2643 10.0896 2.31934 10.0527ZM16.2959 9.17676C17.9411 8.77127 19.7035 9.06319 21.1807 10.0527C21.2357 10.0896 21.3072 10.1356 21.3906 10.1885C21.782 10.4363 22.4355 10.8498 22.8789 11.3379C23.1599 11.6473 23.4411 12.0712 23.4922 12.5967C23.5465 13.1562 23.3277 13.6799 22.9033 14.1348C22.3356 14.7433 21.6428 15.3012 20.6191 15.457C20.3802 15.4934 20.2603 15.5117 20.1885 15.4375C20.1167 15.3631 20.1436 15.221 20.1973 14.9375C20.251 14.654 20.2662 14.3547 20.2334 14.043C20.1271 13.0339 19.5563 12.2999 19.1221 11.8584C18.4491 11.1744 17.5171 10.629 17.0225 10.3398C16.8157 10.212 16.5341 10.0513 16.2471 9.89746C15.8688 9.69471 15.6794 9.59322 15.6963 9.45703C15.7135 9.32072 15.908 9.27241 16.2959 9.17676ZM5.74902 2C5.9144 2 6.0776 2.0123 6.23633 2.03613C6.42589 2.06464 6.52155 2.07955 6.57031 2.1582C6.61874 2.23697 6.58444 2.34176 6.5166 2.55078C6.34298 3.08585 6.24902 3.65706 6.24902 4.25C6.24902 5.48971 6.65954 6.63389 7.35156 7.55371C7.48354 7.72909 7.54952 7.817 7.5293 7.90723C7.50893 7.9974 7.42442 8.0421 7.25488 8.13086C6.80492 8.36638 6.2921 8.5 5.74902 8.5C3.95442 8.49962 2.49902 7.04469 2.49902 5.25C2.49902 3.45531 3.95442 2.00038 5.74902 2ZM11.75 0C14.0971 0.000146626 16 1.90288 16 4.25C16 6.59712 14.0971 8.49985 11.75 8.5C9.40279 8.5 7.5 6.59721 7.5 4.25C7.5 1.90279 9.40279 0 11.75 0ZM17.75 2C19.5448 2.00012 21 3.45515 21 5.25C21 7.04485 19.5448 8.49988 17.75 8.5C17.207 8.49993 16.695 8.36636 16.2451 8.13086C16.0754 8.04201 15.9901 7.99746 15.9697 7.90723C15.9496 7.81706 16.0156 7.72899 16.1475 7.55371C16.8397 6.63382 17.25 5.48991 17.25 4.25C17.25 3.65698 17.1561 3.08592 16.9824 2.55078C16.9146 2.34169 16.8812 2.23698 16.9297 2.1582C16.9784 2.07952 17.0732 2.06463 17.2627 2.03613C17.4215 2.01226 17.5846 2.00002 17.75 2Z" fill="white"/>
</svg>
