<svg width="24" height="25" viewBox="0 0 24 25" fill="none" xmlns="http://www.w3.org/2000/svg">
<path opacity="0.4" d="M15.721 1.95948C16.2295 2.17009 16.6201 2.56142 17.1136 3.05588L19.9413 5.88365C20.4358 6.37716 20.8271 6.76775 21.0377 7.2762C21.2483 7.78465 21.2478 8.33755 21.2471 9.03615L21.2471 13.555V13.555C21.2471 14.9226 21.2471 16.0249 21.1305 16.8919C21.0095 17.792 20.7506 18.5499 20.1487 19.1518C19.5468 19.7537 18.7889 20.0126 17.8888 20.1336C17.0219 20.2502 15.9195 20.2502 14.5519 20.2502H12.4422C11.0746 20.2502 9.97229 20.2502 9.10532 20.1336C8.20521 20.0126 7.44734 19.7537 6.84542 19.1518C6.2435 18.5499 5.98461 17.792 5.86359 16.8919C5.74703 16.0249 5.74705 14.9226 5.74707 13.555V13.555V8.44528V8.44526C5.74705 7.07768 5.74703 5.97536 5.86359 5.1084C5.98461 4.20829 6.2435 3.45042 6.84542 2.8485C7.44734 2.24658 8.20521 1.98769 9.10532 1.86667C9.97229 1.75011 12.5935 1.75005 13.9611 1.75007C14.6597 1.7494 15.2126 1.74888 15.721 1.95948Z" fill="#0084F0"/>
<path fill-rule="evenodd" clip-rule="evenodd" d="M17.1136 3.05549L19.9413 5.88327C20.4358 6.37677 20.8271 6.76737 21.0377 7.27581C21.2188 7.71292 21.2438 8.18289 21.2468 8.75003L18.9451 8.75003C18.0466 8.75006 17.2974 8.75009 16.7026 8.67012C16.0748 8.58572 15.508 8.40004 15.0525 7.94458C14.5971 7.48911 14.4114 6.92231 14.327 6.29451C14.247 5.69974 14.247 4.89853 14.2471 4.00007V4.00003V1.75C14.8141 1.75304 15.284 1.77807 15.721 1.9591C16.2295 2.1697 16.6201 2.56104 17.1136 3.05549ZM9.24902 12.5C9.24902 12.0858 9.58481 11.75 9.99902 11.75L13.999 11.75C14.4132 11.75 14.749 12.0858 14.749 12.5C14.749 12.9142 14.4132 13.25 13.999 13.25L9.99902 13.25C9.58481 13.25 9.24902 12.9142 9.24902 12.5ZM9.24902 16.5C9.24902 16.0858 9.58481 15.75 9.99902 15.75L16.999 15.75C17.4132 15.75 17.749 16.0858 17.749 16.5C17.749 16.9142 17.4132 17.25 16.999 17.25L9.99902 17.25C9.58481 17.25 9.24902 16.9142 9.24902 16.5ZM2.74707 8.5007C2.74707 7.12756 3.48511 5.92679 4.58614 5.27344C4.49696 6.16005 4.49702 7.21322 4.49707 8.37037L4.49707 13.632C4.49701 14.9365 4.49695 16.1089 4.62475 17.0595C4.76433 18.0977 5.08844 19.1636 5.96155 20.0367C6.83466 20.9098 7.90054 21.2339 8.93877 21.3735C9.88934 21.5013 11.0617 21.5012 12.3663 21.5012H14.6279C15.7848 21.5012 16.8379 21.5013 17.7244 21.4121C17.071 22.5129 15.8704 23.2507 14.4974 23.2507L9.4422 23.2507C8.07461 23.2507 6.97229 23.2508 6.10532 23.1342C5.20521 23.0132 4.44734 22.7543 3.84542 22.1524C3.24351 21.5505 2.98461 20.7926 2.8636 19.8925C2.74704 19.0255 2.74705 17.9232 2.74707 16.5556V16.5556L2.74707 8.5007Z" fill="#0084F0"/>
</svg>
