<svg width="22" height="22" viewBox="0 0 22 22" fill="none" xmlns="http://www.w3.org/2000/svg">
<path d="M16.7861 12C17.5253 12 18.1335 12.0001 18.625 12.0469C19.1356 12.0954 19.5981 12.1994 20.0186 12.457C20.436 12.7129 20.7871 13.064 21.043 13.4814C21.3006 13.9019 21.4046 14.3644 21.4531 14.875C21.4999 15.3665 21.5 15.9747 21.5 16.7139V16.7861C21.5 17.5253 21.4999 18.1335 21.4531 18.625C21.4046 19.1356 21.3006 19.5981 21.043 20.0186C20.7871 20.436 20.436 20.7871 20.0186 21.043C19.5981 21.3006 19.1356 21.4046 18.625 21.4531C18.1335 21.4999 17.5253 21.5 16.7861 21.5H16.7139C15.9747 21.5 15.3665 21.4999 14.875 21.4531C14.3644 21.4046 13.9019 21.3006 13.4814 21.043C13.064 20.7871 12.7129 20.436 12.457 20.0186C12.1994 19.5981 12.0954 19.1356 12.0469 18.625C12.0001 18.1335 12 17.5253 12 16.7861V16.7139C12 15.9747 12.0001 15.3665 12.0469 14.875C12.0954 14.3644 12.1994 13.9019 12.457 13.4814C12.7129 13.064 13.064 12.7129 13.4814 12.457C13.9019 12.1994 14.3644 12.0954 14.875 12.0469C15.3665 12.0001 15.9747 12 16.7139 12H16.7861ZM4.78613 0C5.52528 -1.26362e-05 6.1335 0.00014329 6.625 0.046875C7.13561 0.0954483 7.59809 0.199367 8.01855 0.457031C8.43603 0.712871 8.78713 1.06397 9.04297 1.48145C9.30063 1.90191 9.40455 2.36439 9.45312 2.875C9.49986 3.36649 9.50001 3.97473 9.5 4.71387V4.78613C9.50001 5.52527 9.49986 6.13351 9.45312 6.625C9.40455 7.13561 9.30063 7.59809 9.04297 8.01855C8.78713 8.43603 8.43603 8.78713 8.01855 9.04297C7.59809 9.30063 7.13561 9.40455 6.625 9.45312C6.13351 9.49986 5.52527 9.50001 4.78613 9.5H4.71387C3.97473 9.50001 3.36649 9.49986 2.875 9.45312C2.36439 9.40455 1.90191 9.30063 1.48145 9.04297C1.06397 8.78713 0.712871 8.43603 0.457031 8.01855C0.199367 7.59809 0.0954483 7.13561 0.046875 6.625C0.00014323 6.1335 -1.26362e-05 5.52528 0 4.78613V4.71387C-1.26362e-05 3.97472 0.00014329 3.3665 0.046875 2.875C0.0954484 2.36439 0.199367 1.90191 0.457031 1.48145C0.712872 1.06397 1.06397 0.712871 1.48145 0.457031C1.90191 0.199367 2.36439 0.0954484 2.875 0.046875C3.3665 0.00014323 3.97472 -1.26362e-05 4.71387 0H4.78613Z" fill="#0084F0"/>
<path opacity="0.4" d="M4.78613 12C5.52528 12 6.1335 12.0001 6.625 12.0469C7.13561 12.0954 7.59809 12.1994 8.01855 12.457C8.43603 12.7129 8.78713 13.064 9.04297 13.4814C9.30063 13.9019 9.40455 14.3644 9.45312 14.875C9.49986 15.3665 9.50001 15.9747 9.5 16.7139V16.7861C9.50001 17.5253 9.49986 18.1335 9.45312 18.625C9.40455 19.1356 9.30063 19.5981 9.04297 20.0186C8.78713 20.436 8.43603 20.7871 8.01855 21.043C7.59809 21.3006 7.13561 21.4046 6.625 21.4531C6.13351 21.4999 5.52527 21.5 4.78613 21.5H4.71387C3.97473 21.5 3.36649 21.4999 2.875 21.4531C2.36439 21.4046 1.90191 21.3006 1.48145 21.043C1.06397 20.7871 0.712871 20.436 0.457031 20.0186C0.199367 19.5981 0.0954483 19.1356 0.046875 18.625C0.00014323 18.1335 -1.26362e-05 17.5253 0 16.7861V16.7139C-1.26362e-05 15.9747 0.00014329 15.3665 0.046875 14.875C0.0954484 14.3644 0.199367 13.9019 0.457031 13.4814C0.712872 13.064 1.06397 12.7129 1.48145 12.457C1.90191 12.1994 2.36439 12.0954 2.875 12.0469C3.3665 12.0001 3.97472 12 4.71387 12H4.78613ZM16.7861 0C17.5253 -1.26362e-05 18.1335 0.00014329 18.625 0.046875C19.1356 0.0954483 19.5981 0.199367 20.0186 0.457031C20.436 0.712871 20.7871 1.06397 21.043 1.48145C21.3006 1.90191 21.4046 2.36439 21.4531 2.875C21.4999 3.36649 21.5 3.97473 21.5 4.71387V4.78613C21.5 5.52527 21.4999 6.13351 21.4531 6.625C21.4046 7.13561 21.3006 7.59809 21.043 8.01855C20.7871 8.43603 20.436 8.78713 20.0186 9.04297C19.5981 9.30063 19.1356 9.40455 18.625 9.45312C18.1335 9.49986 17.5253 9.50001 16.7861 9.5H16.7139C15.9747 9.50001 15.3665 9.49986 14.875 9.45312C14.3644 9.40455 13.9019 9.30063 13.4814 9.04297C13.064 8.78713 12.7129 8.43603 12.457 8.01855C12.1994 7.59809 12.0954 7.13561 12.0469 6.625C12.0001 6.1335 12 5.52528 12 4.78613V4.71387C12 3.97472 12.0001 3.3665 12.0469 2.875C12.0954 2.36439 12.1994 1.90191 12.457 1.48145C12.7129 1.06397 13.064 0.712871 13.4814 0.457031C13.9019 0.199367 14.3644 0.0954484 14.875 0.046875C15.3665 0.00014323 15.9747 -1.26362e-05 16.7139 0H16.7861Z" fill="#0084F0"/>
</svg>
