<svg width="24" height="24" viewBox="0 0 24 24" fill="none" xmlns="http://www.w3.org/2000/svg">
<path d="M22 11.2502C22.291 11.2502 22.5563 11.0821 22.6797 10.8185C22.803 10.5551 22.7623 10.2442 22.5762 10.0207L18.6885 5.35464C18.1859 4.75024 17.7872 4.27115 17.2295 4.00992C16.6719 3.74882 16.0495 3.74931 15.2637 3.75015H6.97949C6.93375 3.75139 6.91063 3.75212 6.90625 3.75211C6.90147 3.75208 6.88408 3.75218 6.85059 3.75113C6.57492 3.74257 6.29864 3.85755 6.1084 4.08804L5 5.43082V3.75015C5 3.19787 4.55228 2.75015 4 2.75015C3.44772 2.75015 3 3.19787 3 3.75015L3 7.85367L1.46484 9.71304C1.1369 10.1108 1.19015 10.702 1.58398 11.0334C1.97786 11.3647 2.56326 11.3107 2.8916 10.9132L6.74902 6.23941C6.94542 6.00147 7.04418 5.88245 7.17676 5.87613C7.30922 5.86996 7.4187 5.97939 7.63672 6.19742L11.9404 10.5011C12.17 10.732 12.4176 10.982 12.7441 11.1173C13.0707 11.2526 13.4225 11.2511 13.748 11.2502H22ZM5.40039 21.2502C5.68297 21.2502 5.82428 21.2501 5.91211 21.1623C5.99989 21.0744 6 20.9331 6 20.6505L6 17.5002C6 16.9479 6.44772 16.5002 7 16.5002C7.55228 16.5002 8 16.9479 8 17.5002V20.6505C8 20.9331 8.00011 21.0744 8.08789 21.1623C8.17572 21.2501 8.31703 21.2502 8.59961 21.2502H11C11.4142 21.2502 11.75 20.9144 11.75 20.5002L11.75 12.2003C11.75 12.0994 11.7498 12.0485 11.7295 12.007C11.7091 11.9655 11.6663 11.9315 11.5801 11.8644C11.3653 11.6971 11.199 11.5295 11.0869 11.4162L7.56934 7.89761C7.42403 7.75229 7.351 7.67961 7.2627 7.68375C7.17432 7.68796 7.10845 7.76733 6.97754 7.92593L3.85547 11.7082C3.53038 12.102 3.09668 12.3532 2.63379 12.4523C2.43748 12.4943 2.33941 12.5155 2.29492 12.5705C2.25047 12.6255 2.25 12.7121 2.25 12.8859L2.25 20.5002C2.25 20.9144 2.58579 21.2502 3 21.2502H5.40039ZM7.00293 13.5002C6.45331 13.4999 6.00783 13.0523 6.00781 12.5002C6.00781 11.948 6.4533 11.5004 7.00293 11.5002H7.0127C7.56232 11.5004 8.00781 11.948 8.00781 12.5002C8.00779 13.0523 7.56231 13.4999 7.0127 13.5002H7.00293ZM21 21.2502C21.4141 21.25 21.75 20.9143 21.75 20.5002V12.8966C21.7497 12.7104 21.749 12.6172 21.6904 12.5587C21.6319 12.5004 21.5385 12.5001 21.3516 12.5002L13.7041 12.5011C13.6347 12.5015 13.5508 12.5015 13.4561 12.4992C13.2324 12.4936 13.1209 12.4911 13.0605 12.55C13.0002 12.6088 13 12.713 13 12.922L13 20.5002C13 20.559 12.9972 20.6174 12.9922 20.675C12.9665 20.9717 12.9533 21.1208 13.0127 21.1857C13.0721 21.2505 13.198 21.2502 13.4482 21.2502L21 21.2502ZM16 16.2502C15.5858 16.2502 15.25 15.9144 15.25 15.5002C15.2501 15.086 15.5858 14.7502 16 14.7502H18C18.4142 14.7502 18.7499 15.086 18.75 15.5002C18.75 15.9144 18.4142 16.2502 18 16.2502H16Z" fill="white"/>
</svg>
