<svg width="24" height="24" viewBox="0 0 24 24" fill="none" xmlns="http://www.w3.org/2000/svg">
<path opacity="0.4" d="M3 21V10H8.5L12 7L15.5 10H21V21H14.5V16.5C14.5 15.6716 13.8284 15 13 15H11C10.1716 15 9.5 15.6716 9.5 16.5V21H3Z" fill="#4F4F4F"/>
<path d="M22 21.75C22.4142 21.75 22.75 21.4142 22.75 21C22.75 20.5858 22.4142 20.25 22 20.25H21.75V10.75H22C22.4142 10.75 22.75 10.4142 22.75 10C22.75 9.58579 22.4142 9.25 22 9.25H21.4951L19.7285 5.12891C19.2927 4.11191 18.8492 3.31868 18.1113 2.83203C17.3733 2.3454 16.4689 2.25 15.3623 2.25H8.6377C7.53122 2.25 6.62759 2.3455 5.88965 2.83203C5.15166 3.31866 4.70739 4.11179 4.27148 5.12891L2.50488 9.25H2C1.58579 9.25 1.25 9.58579 1.25 10C1.25 10.4142 1.58579 10.75 2 10.75H2.25L2.25 20.25H2C1.58579 20.25 1.25 20.5858 1.25 21C1.25 21.4142 1.58579 21.75 2 21.75L22 21.75ZM5.65039 5.71973C6.07603 4.72656 6.37678 4.30694 6.71484 4.08398C7.05294 3.86105 7.55713 3.75001 8.6377 3.75H15.3623C16.4427 3.75 16.9471 3.86112 17.2852 4.08398C17.6232 4.30692 17.924 4.72656 18.3496 5.71973L19.8623 9.25H15.8701C15.8356 9.25 15.7878 9.23686 15.7383 9.18945L13.1699 6.72754C12.5053 6.09057 11.4947 6.09057 10.8301 6.72754L8.26172 9.18945C8.21218 9.23686 8.16438 9.25 8.12988 9.25H4.1377L5.65039 5.71973ZM3.75 10.75H8.12988C8.57272 10.75 8.98692 10.5723 9.2998 10.2725L11.8682 7.81055C11.919 7.76183 11.9661 7.75 12 7.75C12.0339 7.75 12.081 7.76183 12.1318 7.81055L14.7002 10.2725C15.0131 10.5723 15.4273 10.75 15.8701 10.75H20.25V20.25L15.25 20.25V16.5C15.25 15.2574 14.2426 14.25 13 14.25L11 14.25C9.75736 14.25 8.75 15.2574 8.75 16.5V20.25H3.75L3.75 10.75ZM12.0078 12C12.5601 12 13.0078 11.5523 13.0078 11C13.0078 10.4477 12.5601 10 12.0078 10H11.999C11.4467 10 10.999 10.4477 10.999 11C10.999 11.5523 11.4467 12 11.999 12H12.0078ZM7 14.75C7.41421 14.75 7.75 14.4142 7.75 14C7.75 13.5858 7.41421 13.25 7 13.25H6C5.58579 13.25 5.25 13.5858 5.25 14C5.25 14.4142 5.58579 14.75 6 14.75H7ZM18 14.75C18.4142 14.75 18.75 14.4142 18.75 14C18.75 13.5858 18.4142 13.25 18 13.25H17C16.5858 13.25 16.25 13.5858 16.25 14C16.25 14.4142 16.5858 14.75 17 14.75H18ZM10.25 16.5C10.25 16.0858 10.5858 15.75 11 15.75L13 15.75C13.4142 15.75 13.75 16.0858 13.75 16.5V20.25H10.25V16.5Z" fill="#4F4F4F"/>
</svg>
