<svg width="25" height="24" viewBox="0 0 25 24" fill="none" xmlns="http://www.w3.org/2000/svg">
<path opacity="0.4" d="M22.75 12C22.75 6.47715 18.2728 2 12.75 2C7.22715 2 2.75 6.47715 2.75 12C2.75 17.5228 7.22715 22 12.75 22C18.2728 22 22.75 17.5228 22.75 12Z" fill="#4F4F4F"/>
<path d="M12.75 1.25C18.6871 1.25 23.5 6.06294 23.5 12C23.5 17.9371 18.6871 22.75 12.75 22.75C6.81294 22.75 2 17.9371 2 12C2 6.06294 6.81294 1.25 12.75 1.25ZM12.75 2.75C7.64137 2.75 3.5 6.89137 3.5 12C3.5 17.1086 7.64137 21.25 12.75 21.25C17.8586 21.25 22 17.1086 22 12C22 6.89137 17.8586 2.75 12.75 2.75ZM12.0264 10.25C12.2315 10.2499 12.4534 10.2502 12.6406 10.2754C12.8599 10.3049 13.1402 10.3804 13.376 10.6162C13.6118 10.852 13.6873 11.1322 13.7168 11.3516C13.742 11.5388 13.7423 11.7607 13.7422 11.9658V17C13.7422 17.4142 13.4064 17.75 12.9922 17.75C12.578 17.75 12.2422 17.4142 12.2422 17V12C12.2422 11.9009 12.2423 11.8204 12.2412 11.751C12.1718 11.7499 12.0913 11.75 11.9922 11.75C11.578 11.75 11.2422 11.4142 11.2422 11C11.2422 10.5858 11.578 10.25 11.9922 10.25C12.0035 10.25 12.0149 10.25 12.0264 10.25ZM12.751 7C13.3033 7 13.751 7.44772 13.751 8C13.751 8.55228 13.3033 9 12.751 9H12.7422C12.1899 9 11.7422 8.55228 11.7422 8C11.7422 7.44772 12.1899 7 12.7422 7H12.751Z" fill="#4F4F4F"/>
</svg>
