<svg width="24" height="24" viewBox="0 0 24 24" fill="none" xmlns="http://www.w3.org/2000/svg">
<path opacity="0.4" d="M3 11.1627V12.8373C3 14.0944 3 14.723 3.10956 15.2815C3.70555 18.3203 6.18961 19.6768 9.05112 20.484C10.2401 20.8194 10.8346 20.987 11.3156 20.9988C13.3831 21.0494 14.9264 19.4769 15 17.625V6.37501C14.9264 4.52307 13.3831 2.95061 11.3156 3.00119C10.8346 3.01295 10.2401 3.18064 9.05112 3.51603C6.18961 4.32316 3.70555 5.67965 3.10956 8.71846C3 9.27705 3 9.90561 3 11.1627Z" fill="#505050"/>
<path d="M11.2969 2.25195C13.7802 2.1912 15.6594 4.09058 15.749 6.3457C15.7655 6.75959 15.4432 7.10855 15.0293 7.125C14.6156 7.14118 14.2674 6.81898 14.251 6.40527C14.1934 4.95652 12.9856 3.71058 11.334 3.75098C10.9722 3.75983 10.493 3.88904 9.25488 4.23828C6.45561 5.02787 4.35525 6.26532 3.8457 8.86328C3.75358 9.33301 3.75 9.87369 3.75 11.1631V12.8379C3.75 14.1273 3.75358 14.668 3.8457 15.1377C4.35525 17.7356 6.45562 18.9731 9.25488 19.7627C10.493 20.1119 10.9722 20.2412 11.334 20.25C12.9856 20.2904 14.1934 19.0445 14.251 17.5957C14.2674 17.182 14.6156 16.8598 15.0293 16.876C15.4432 16.8924 15.7655 17.2414 15.749 17.6553C15.6594 19.9104 13.7802 21.8098 11.2969 21.749C10.7201 21.7348 10.042 21.5434 8.97852 21.2432C8.93564 21.2311 8.8918 21.2185 8.84766 21.2061C5.92405 20.3814 3.05664 18.9061 2.37402 15.4268C2.25032 14.796 2.24992 14.0995 2.25 12.9316V11.0693C2.24992 9.90148 2.25032 9.20494 2.37402 8.57422C3.05663 5.09488 5.92404 3.61958 8.84766 2.79492C8.89179 2.78247 8.93565 2.76991 8.97852 2.75781C10.0421 2.45759 10.7201 2.26615 11.2969 2.25195ZM11.9775 8.96289C12.2746 8.6742 12.7494 8.68052 13.0381 8.97754C13.3267 9.27457 13.3195 9.7494 13.0225 10.0381C12.8609 10.1951 12.6041 10.3976 12.3594 10.5898C12.3405 10.6046 12.3218 10.6198 12.3027 10.6348C12.057 10.8277 11.7936 11.0335 11.5449 11.2441C11.5426 11.2461 11.5404 11.2481 11.5381 11.25H21C21.4141 11.25 21.7498 11.586 21.75 12C21.75 12.4142 21.4142 12.75 21 12.75H11.5381C11.5405 12.752 11.5425 12.7548 11.5449 12.7568C11.7936 12.9675 12.057 13.1733 12.3027 13.3662C12.3218 13.3812 12.3406 13.3963 12.3594 13.4111C12.6041 13.6033 12.8609 13.8058 13.0225 13.9629C13.3195 14.2516 13.3268 14.7264 13.0381 15.0234C12.7494 15.3204 12.2746 15.3267 11.9775 15.0381C11.8863 14.9494 11.704 14.804 11.4326 14.5908C11.4131 14.5755 11.3932 14.5598 11.373 14.5439C11.1309 14.3539 10.8463 14.1311 10.5752 13.9014C10.2847 13.6552 9.98363 13.3789 9.74902 13.1035C9.63148 12.9655 9.51535 12.8099 9.42578 12.6426C9.33939 12.4811 9.25 12.2583 9.25 12C9.2501 11.7419 9.33944 11.5197 9.42578 11.3584C9.51536 11.191 9.63146 11.0355 9.74902 10.8975C9.98363 10.622 10.2847 10.3458 10.5752 10.0996C10.8463 9.86987 11.1309 9.6471 11.373 9.45703C11.3932 9.44119 11.4131 9.42552 11.4326 9.41016C11.704 9.19696 11.8863 9.05159 11.9775 8.96289Z" fill="#505050"/>
</svg>
