<svg width="24" height="24" viewBox="0 0 24 24" fill="none" xmlns="http://www.w3.org/2000/svg">
<path opacity="0.4" fill-rule="evenodd" clip-rule="evenodd" d="M7.16873 3.35618C8.59295 2.5706 10.0807 1.75 11.9982 1.75C13.9157 1.75 15.4043 2.5706 16.8294 3.35618C17.6397 3.80287 18.4295 4.23825 19.2659 4.50499C20.2037 4.80405 20.6726 4.95358 20.8624 5.16449C21.0522 5.37539 21.1078 5.68362 21.219 6.30007C22.4086 12.8959 19.8116 18.9939 13.6126 21.3675C12.9466 21.6225 12.6135 21.75 12.0015 21.75C11.3894 21.75 11.0564 21.6225 10.3903 21.3675C4.1909 18.994 1.59143 12.896 2.78072 6.30013C2.89186 5.68375 2.94743 5.37556 3.1372 5.16465C3.32697 4.95374 3.79588 4.80413 4.7337 4.50491C5.56973 4.23816 6.35897 3.80283 7.16873 3.35618ZM11.125 10.125H12.875C13.6904 10.125 14.0981 10.125 14.4197 10.2677C14.8485 10.458 15.1892 10.823 15.3668 11.2825C15.5 11.627 15.5 12.0639 15.5 12.9375C15.5 13.8111 15.5 14.248 15.3668 14.5925C15.1892 15.052 14.8485 15.417 14.4197 15.6073C14.0981 15.75 13.6904 15.75 12.875 15.75H11.125C10.3096 15.75 9.9019 15.75 9.5803 15.6073C9.1515 15.417 8.81083 15.052 8.63321 14.5925C8.5 14.248 8.5 13.8111 8.5 12.9375C8.5 12.0639 8.5 11.627 8.63321 11.2825C8.81083 10.823 9.1515 10.458 9.5803 10.2677C9.9019 10.125 10.3096 10.125 11.125 10.125Z" fill="#4F4F4F"/>
<path fill-rule="evenodd" clip-rule="evenodd" d="M11.999 1.25C10.3178 1.25 8.95094 1.81794 7.75881 2.43555C7.39855 2.62219 7.06388 2.8068 6.74408 2.98322C5.96162 3.41485 5.26815 3.7974 4.50658 4.04039L4.50658 4.04039L4.48104 4.04854L4.48103 4.04854C4.0338 4.19123 3.66305 4.30952 3.38215 4.41959C3.11773 4.52321 2.80348 4.66519 2.58051 4.913C2.38023 5.13559 2.27734 5.38547 2.20912 5.6245C2.14719 5.84148 2.09977 6.10461 2.04899 6.38643L2.04347 6.41704L2.78056 6.54995L2.04347 6.41704C0.805526 13.2827 3.51252 19.787 10.123 22.3179L10.123 22.3179L10.156 22.3306C10.8057 22.5794 11.2513 22.75 12.0023 22.75C12.7535 22.75 13.1991 22.5793 13.849 22.3304L13.8816 22.3179L13.6134 21.6175L13.8816 22.3179C20.4919 19.7868 23.1962 13.2825 21.9579 6.41701L21.9579 6.417L21.9524 6.38639C21.9016 6.10451 21.8542 5.84134 21.7922 5.62433C21.724 5.38529 21.6211 5.13539 21.4207 4.91279C21.1977 4.66499 20.8835 4.52304 20.619 4.41946C20.3381 4.30942 19.9673 4.19118 19.5201 4.04856L19.4946 4.04045C18.7326 3.79744 18.0386 3.41479 17.2555 2.98309L17.2555 2.98308L17.2555 2.98307C16.9356 2.80669 16.6008 2.62212 16.2404 2.43554C15.0477 1.81795 13.6803 1.25 11.999 1.25ZM4.96253 5.46941C5.87439 5.17847 6.76278 4.68833 7.59308 4.23023L7.59308 4.23023C7.88607 4.06858 8.17182 3.91093 8.44882 3.76742C9.56037 3.19156 10.6725 2.75 11.999 2.75C13.3257 2.75 14.4384 3.19162 15.5507 3.76757C15.8279 3.91108 16.1138 4.06872 16.4069 4.23035L16.4069 4.23036C17.2378 4.68849 18.1266 5.17862 19.0389 5.46953L19.2667 4.75499L19.0389 5.46954C19.518 5.62233 19.8418 5.726 20.072 5.81613C20.2234 5.87546 20.2893 5.91295 20.3105 5.9254C20.3184 5.94137 20.3322 5.97433 20.3498 6.0361C20.3887 6.17223 20.4235 6.36018 20.4818 6.68325C21.6227 13.0095 19.133 18.701 13.3453 20.9171C12.681 21.1714 12.4627 21.25 12.0023 21.25C11.5419 21.25 11.3237 21.1714 10.6593 20.9171C4.87097 18.701 2.37903 13.0093 3.51966 6.68322C3.57791 6.3602 3.61267 6.17228 3.65152 6.03618C3.66914 5.97443 3.68292 5.94148 3.69085 5.92552C3.71206 5.91307 3.77792 5.87556 3.92942 5.8162C4.15954 5.72602 4.48339 5.62229 4.96253 5.46941ZM20.3029 5.91247C20.303 5.91236 20.3036 5.91318 20.3049 5.91527C20.3036 5.91363 20.3029 5.91258 20.3029 5.91247ZM3.69638 5.91539C3.69777 5.91375 3.69842 5.91271 3.6984 5.91259C3.69839 5.91252 3.69814 5.91278 3.69768 5.91342C3.69735 5.91388 3.69692 5.91452 3.69638 5.91539ZM9.49997 8.758V9.75644C8.53636 10.0662 8.01413 10.8796 7.86953 11.458C7.82159 11.6498 7.79632 11.9083 7.78047 12.1518C7.76357 12.4113 7.75427 12.7107 7.75118 13.0122C7.74506 13.6084 7.76288 14.2547 7.80286 14.6545L7.80888 14.7147L7.82446 14.7731C8.14947 15.9919 9.00778 16.5395 9.82717 16.7067L9.8686 16.7152L9.91073 16.7189C10.3974 16.7622 12.1048 16.7562 13.0194 16.753L13.0213 16.753C13.1996 16.7524 13.3477 16.7519 13.4505 16.7519C14.0181 16.7616 14.6026 16.662 15.1078 16.3286C15.6277 15.9854 15.9724 15.4551 16.1598 14.7806L16.1704 14.7424L16.1769 14.7032C16.2182 14.4553 16.2472 13.8121 16.2509 13.2045C16.2528 12.8878 16.2481 12.5572 16.2325 12.2623C16.2178 11.9829 16.1912 11.6838 16.1347 11.458L16.1279 11.4307L16.1191 11.404C15.8095 10.4696 15.1625 9.97647 14.516 9.76301V8.758C14.516 7.37287 13.3931 6.25 12.008 6.25C10.6228 6.25 9.49997 7.37287 9.49997 8.758ZM12.008 7.75C11.4513 7.75 11 8.2013 11 8.758V9.62988H13.016V8.758C13.016 8.2013 12.5647 7.75 12.008 7.75ZM10.3371 11.1299C9.68257 11.1299 9.38276 11.5897 9.32474 11.8218C9.31269 11.87 9.29295 12.009 9.2773 12.2492C9.2627 12.4734 9.254 12.744 9.2511 13.0276C9.24558 13.5656 9.26122 14.1123 9.28959 14.4424C9.37471 14.7261 9.50141 14.8951 9.62485 15.0025C9.75173 15.1129 9.90828 15.1864 10.0869 15.2282C10.5513 15.2606 12.0442 15.2559 12.9499 15.2531C13.1556 15.2524 13.331 15.2519 13.4571 15.2519L13.4712 15.252C13.8612 15.2593 14.1138 15.1873 14.2815 15.0767C14.4309 14.9781 14.5898 14.7984 14.7019 14.4227C14.7207 14.2613 14.7474 13.7689 14.7509 13.1953C14.7527 12.8969 14.7481 12.5975 14.7346 12.3412C14.7216 12.0955 14.7023 11.9302 14.685 11.846C14.4886 11.2926 14.0551 11.1299 13.6971 11.1299H10.3371Z" fill="#4F4F4F"/>
</svg>
