<svg width="24" height="24" viewBox="0 0 24 24" fill="none" xmlns="http://www.w3.org/2000/svg">
<path opacity="0.4" d="M15.6605 19.2834C17.2317 18.1204 18.469 16.9156 19.4173 15.7133L13.8921 9.44479C13.6659 9.1882 13.2873 9.13296 12.9972 9.31424L10.8111 10.6806C10.0418 11.1614 9.04334 11.0532 8.3949 10.4187C7.53837 9.58062 7.62479 8.17769 8.5777 7.45106L11.9998 4.84158L10.9656 4.06801C9.55962 3.01211 7.21909 2.34923 4.53744 3.99415C1.01807 6.15294 0.22172 13.2749 8.33953 19.2834C9.88572 20.4278 10.6588 21 12 21C13.3412 21 14.1143 20.4278 15.6605 19.2834Z" fill="#4F4F4F"/>
<path fill-rule="evenodd" clip-rule="evenodd" d="M11.4156 3.46844C11.4158 3.46858 11.4155 3.4683 11.4156 3.46844L11.9995 3.90518L12.5836 3.46844C12.5838 3.46826 12.5833 3.46862 12.5836 3.46844C14.1992 2.25553 16.8738 1.52673 19.8543 3.35499C23.2153 5.41659 24.1219 10.9586 20.0058 16.1779C19.012 17.438 17.7251 18.6881 16.1063 19.8863C16.0713 19.9122 16.0366 19.9379 16.0022 19.9634C14.5509 21.0383 13.5897 21.7501 11.9996 21.7501C10.4095 21.7501 9.44836 21.0383 7.99698 19.9634C7.96258 19.9379 7.92791 19.9122 7.89294 19.8863C3.71334 16.7927 1.73976 13.3441 1.33081 10.2949C0.923824 7.26043 2.08365 4.61935 4.1449 3.35499C7.12553 1.52667 9.80004 2.25545 11.4156 3.46844ZM10.755 4.84748L10.5149 4.66788C9.31836 3.76931 7.31152 3.17229 4.9292 4.63361C3.47107 5.52802 2.47304 7.52729 2.8175 10.0956C3.15998 12.6492 4.84713 15.7657 8.78534 18.6807C10.3675 19.8517 10.945 20.2501 11.9996 20.2501C13.0542 20.2501 13.6317 19.8517 15.2139 18.6807C16.5243 17.7107 17.5862 16.7175 18.4321 15.7304L13.3576 9.97332L11.2082 11.3167C10.1453 11.981 8.76587 11.8315 7.86999 10.9549C6.6866 9.79703 6.80599 7.85872 8.12254 6.85481L10.755 4.84748ZM19.3661 14.5216C22.4858 10.0107 21.2679 5.98178 19.07 4.63361C16.6877 3.17229 14.6809 3.76931 13.4843 4.66788L13.4831 4.66881L12.4513 5.44028L9.03208 8.04759C8.4428 8.49694 8.38936 9.36451 8.91904 9.88278C9.32003 10.2751 9.93747 10.342 10.4132 10.0447L12.5993 8.67839C13.2006 8.3026 13.9855 8.41711 14.4543 8.94901L19.3661 14.5216Z" fill="#4F4F4F"/>
</svg>
