<svg width="21" height="21" viewBox="0 0 21 21" fill="none" xmlns="http://www.w3.org/2000/svg">
<path opacity="0.4" d="M18.6142 11.6103C17.4242 12.8003 15.1842 12.7503 11.7542 12.7503C9.54421 12.7503 7.75421 10.9603 7.75421 8.7503C7.75421 5.3203 7.70425 3.08034 8.89421 1.89034C10.0842 0.70034 10.6142 0.7503 15.8842 0.7503C16.3942 0.7503 16.6442 1.36032 16.2842 1.72032L13.5742 4.44034C12.8842 5.13034 12.8842 6.24028 13.5742 6.93028C14.2642 7.62028 15.3742 7.62028 16.0642 6.93028L18.7842 4.22032C19.1442 3.86032 19.7542 4.11032 19.7542 4.62032C19.7542 9.8903 19.8042 10.4203 18.6142 11.6103Z" fill="#4F4F4F"/>
<path fill-rule="evenodd" clip-rule="evenodd" d="M15.8831 0C16.4191 0 16.8971 0.31901 17.1021 0.81201C17.3071 1.30601 17.1941 1.87098 16.8141 2.25098L14.105 4.97002C13.912 5.16302 13.8061 5.41704 13.8061 5.68604C13.8061 5.95504 13.912 6.20898 14.104 6.40098C14.296 6.59298 14.5501 6.69902 14.8191 6.69902C15.0881 6.69902 15.342 6.59298 15.534 6.40098L18.255 3.69004C18.634 3.31104 19.1991 3.19803 19.6931 3.40303C20.1861 3.60703 20.5052 4.08597 20.5052 4.62197L20.5051 6.1823C20.5004 10.1473 20.4121 10.876 19.1451 12.142C17.8331 13.454 15.709 13.502 12.53 13.502L12.0637 13.5L6.11301 19.4507C5.43401 20.1297 4.53503 20.5028 3.57903 20.5028C2.61702 20.4997 1.72202 20.1248 1.05002 19.4478C0.377016 18.7808 0.00201594 17.8858 7.93649e-06 16.9318C-0.00198406 15.9728 0.371066 15.0698 1.05207 14.3898L7.00309 8.4387V8.352C7.00109 4.96195 7.00005 2.72296 8.36302 1.35996C9.62476 0.0982078 10.351 0.00794475 14.2737 0.000694876L15.8831 0ZM7.26301 10.3007L2.11301 15.4507C1.71701 15.8467 1.49902 16.3717 1.50001 16.9287C1.50102 17.4807 1.71808 17.9987 2.11008 18.3877C2.50408 18.7847 3.02205 19.0018 3.57405 19.0028C4.13403 19.0028 4.65707 18.7858 5.05207 18.3898L10.2019 13.2399C8.82832 12.764 7.7388 11.6743 7.26301 10.3007ZM15.4431 1.50098L14.3838 1.50041C10.4974 1.50652 10.2517 1.59147 9.42312 2.421C8.50042 3.34365 8.50112 5.33449 8.50205 8.3476L8.50222 8.7787C8.51772 10.5576 9.96972 12 11.7521 12H12.1802C15.1819 12 17.1611 12 18.0811 11.08C18.9691 10.192 19.0031 9.973 19.0021 5.23301V5.05996L16.5911 7.46201C16.1171 7.93601 15.486 8.19805 14.817 8.19805C14.148 8.19805 13.517 7.93604 13.042 7.46104C12.567 6.98604 12.305 6.35504 12.305 5.68604C12.305 5.01704 12.567 4.38604 13.042 3.91104L15.4431 1.50098ZM3.75294 17.75H3.7629C4.3149 17.75 4.75792 17.302 4.75792 16.75C4.75792 16.198 4.30494 15.75 3.75294 15.75C3.20094 15.75 2.75294 16.198 2.75294 16.75C2.75294 17.302 3.20094 17.75 3.75294 17.75Z" fill="#4F4F4F"/>
</svg>
