<svg width="25" height="24" viewBox="0 0 25 24" fill="none" xmlns="http://www.w3.org/2000/svg">
<path fill-rule="evenodd" clip-rule="evenodd" d="M5 3.25C2.92893 3.25 1.25 4.92893 1.25 7V17C1.25 19.0711 2.92893 20.75 5 20.75H19C21.0711 20.75 22.75 19.0711 22.75 17V7C22.75 4.92893 21.0711 3.25 19 3.25H5ZM12.1057 15.2114C11.1559 13.9109 9.83882 13.2389 8.47596 13.257C7.12087 13.2751 5.82568 13.9738 4.90076 15.2027C4.7298 15.4299 4.70197 15.7342 4.8289 15.9886C4.95583 16.243 5.2157 16.4037 5.5 16.4037H11.5C11.7824 16.4037 12.0408 16.2452 12.1687 15.9934C12.2966 15.7417 12.2722 15.4394 12.1057 15.2114ZM8.5 8.25C7.39543 8.25 6.5 9.14543 6.5 10.25C6.5 11.3546 7.39543 12.25 8.5 12.25C9.60457 12.25 10.5 11.3546 10.5 10.25C10.5 9.14543 9.60457 8.25 8.5 8.25ZM14 9.25C13.5858 9.24999 13.25 9.58577 13.25 9.99998C13.25 10.4142 13.5858 10.75 14 10.75L19 10.7501C19.4142 10.7501 19.75 10.4144 19.75 10.0001C19.75 9.58593 19.4142 9.25013 19 9.25012L14 9.25ZM14 13.25C13.5858 13.25 13.25 13.5858 13.25 14C13.25 14.4142 13.5858 14.75 14 14.75L17 14.7501C17.4142 14.7501 17.75 14.4144 17.75 14.0002C17.75 13.5859 17.4142 13.2501 17 13.2501L14 13.25Z" fill="#0084F0"/>
<path d="M20.9987 14.4166C21.3485 14.4166 21.624 14.6808 21.7998 15.0373L22.3872 16.2217C22.405 16.2583 22.4472 16.31 22.5107 16.3572C22.5741 16.4043 22.6362 16.4304 22.677 16.4372L23.7402 16.6153C24.1243 16.6799 24.4462 16.8681 24.5507 17.1959C24.6551 17.5235 24.5021 17.8638 24.2259 18.1405L24.2257 18.1408L23.3997 18.9736C23.367 19.0066 23.3303 19.0688 23.3073 19.1498C23.2845 19.2302 23.2824 19.3035 23.2928 19.3509L23.2929 19.3515L23.5292 20.3818C23.6273 20.8105 23.5948 21.2357 23.2924 21.458C22.9889 21.6811 22.5742 21.5822 22.1975 21.3578L21.2009 20.763C21.159 20.738 21.0871 20.7177 21.0004 20.7177C20.9142 20.7177 20.8409 20.7377 20.7963 20.7636L20.7956 20.764L19.801 21.3577C19.4247 21.5828 19.0105 21.68 18.707 21.4567C18.4048 21.2344 18.3707 20.81 18.469 20.3815L18.7053 19.3515L18.7054 19.3509C18.7158 19.3035 18.7138 19.2302 18.6909 19.1498C18.6679 19.0688 18.6313 19.0066 18.5985 18.9736L17.772 18.1402C17.4975 17.8635 17.3451 17.5234 17.4486 17.1964C17.5525 16.8684 17.8738 16.6799 18.2581 16.6153L19.3204 16.4374L19.3208 16.4373C19.3597 16.4305 19.4209 16.4048 19.4842 16.3575C19.5475 16.3101 19.5899 16.2584 19.6077 16.2217L19.6086 16.2198L20.1952 15.037L20.1954 15.0365C20.373 14.6803 20.6493 14.4166 20.9987 14.4166Z" fill="#FFE100"/>
</svg>
