<svg width="24" height="24" viewBox="0 0 24 24" fill="none" xmlns="http://www.w3.org/2000/svg">
<path opacity="0.4" d="M13.7276 3.44418L15.4874 6.99288C15.7274 7.48687 16.3673 7.9607 16.9073 8.05143L20.0969 8.58575C22.1367 8.92853 22.6167 10.4206 21.1468 11.8925L18.6671 14.3927C18.2471 14.8161 18.0172 15.6327 18.1471 16.2175L18.8571 19.3125C19.417 21.7623 18.1271 22.71 15.9774 21.4296L12.9877 19.6452C12.4478 19.3226 11.5579 19.3226 11.0079 19.6452L8.01827 21.4296C5.8785 22.71 4.57865 21.7522 5.13859 19.3125L5.84851 16.2175C5.97849 15.6327 5.74852 14.8161 5.32856 14.3927L2.84884 11.8925C1.389 10.4206 1.85895 8.92853 3.89872 8.58575L7.08837 8.05143C7.61831 7.9607 8.25824 7.48687 8.49821 6.99288L10.258 3.44418C11.2179 1.51861 12.7777 1.51861 13.7276 3.44418Z" fill="#4F4F4F"/>
<path fill-rule="evenodd" clip-rule="evenodd" d="M10.9288 3.77878C10.9286 3.77902 10.9289 3.77854 10.9288 3.77878L9.17084 7.32369C8.98422 7.70616 8.67207 8.03376 8.35062 8.27407C8.0285 8.51489 7.62761 8.71994 7.21446 8.79068L7.2118 8.79113L4.02253 9.32538C3.13566 9.47442 2.84426 9.82646 2.77594 10.0421C2.70673 10.2607 2.74423 10.7225 3.38087 11.3644L5.86059 13.8646C6.18234 14.189 6.39728 14.6224 6.51577 15.0398C6.6344 15.4576 6.67857 15.9375 6.58015 16.3802L6.57906 16.3851L5.86912 19.4802C5.60418 20.6346 5.87176 21.0603 6.01001 21.162C6.14446 21.2609 6.62176 21.3909 7.63269 20.786L10.628 18.9983C11.0444 18.754 11.5433 18.6532 12.0011 18.6532C12.4581 18.6532 12.9573 18.7537 13.3716 19.0012C13.3717 19.0012 13.3715 19.0011 13.3716 19.0012L16.3607 20.7852C16.3608 20.7853 16.3605 20.7852 16.3607 20.7852C17.38 21.3922 17.8567 21.2626 17.9887 21.1656C18.1238 21.0662 18.3914 20.6431 18.1254 19.4796L17.4145 16.3802C17.3161 15.9375 17.3603 15.4576 17.4789 15.0398C17.5974 14.6224 17.8124 14.189 18.1341 13.8646L20.6138 11.3644L20.6156 11.3625C21.2565 10.7208 21.292 10.2603 21.2229 10.0435C21.154 9.82721 20.8598 9.47455 19.9722 9.32538L16.7829 8.79113C16.3655 8.72099 15.9615 8.51671 15.6367 8.27512C15.3131 8.03433 15.0006 7.70639 14.8139 7.32369L13.0545 3.77598C12.6323 2.92003 12.204 2.75 11.9961 2.75C11.7869 2.75 11.3559 2.92234 10.9288 3.77878ZM14.3995 3.11191C13.8719 2.04253 13.0454 1.25 11.9961 1.25C10.948 1.25 10.119 2.04108 9.58632 3.10957L9.58562 3.11097L7.82582 6.65967L7.82312 6.66516C7.76959 6.77535 7.64261 6.93054 7.45248 7.07268C7.2627 7.21456 7.07917 7.29175 6.96233 7.31202C6.962 7.31208 6.96166 7.31213 6.96132 7.31219L3.77433 7.84606C2.62143 8.0398 1.65759 8.60525 1.34595 9.58925C1.03521 10.5704 1.49265 11.5906 2.31585 12.4206L4.79558 14.9209C4.89379 15.0199 5.0038 15.2064 5.0728 15.4494C5.14133 15.6908 5.14741 15.9107 5.11633 16.0527C5.11619 16.0534 5.11604 16.0541 5.1159 16.0547L4.40711 19.1447C4.40712 19.1447 4.4071 19.1448 4.40711 19.1447C4.11214 20.43 4.21449 21.7032 5.12111 22.3702C6.03154 23.04 7.27405 22.7487 8.40288 22.0732L11.3869 20.2921C11.3876 20.2917 11.3882 20.2914 11.3888 20.291C11.5226 20.2132 11.7427 20.1532 12.0011 20.1532C12.2614 20.1532 12.477 20.214 12.6026 20.289L15.5925 22.0736C16.7227 22.7467 17.9667 23.0433 18.8771 22.3742C19.7843 21.7073 19.8818 20.4317 19.5877 19.1454L18.8788 16.0547C18.8786 16.0541 18.8785 16.0534 18.8784 16.0527C18.8473 15.9107 18.8534 15.6908 18.9219 15.4494C18.9909 15.2064 19.1009 15.0199 19.1991 14.9209L21.677 12.4225C21.6773 12.4222 21.6776 12.4219 21.6778 12.4216C22.5064 11.5916 22.9653 10.5705 22.6521 9.5879C22.3386 8.60449 21.3729 8.03973 20.2207 7.84613L17.0311 7.3118C16.9086 7.29121 16.7223 7.21315 16.5321 7.07164C16.3417 6.92998 16.215 6.77513 16.1616 6.66516L14.3995 3.11191C14.3996 3.11207 14.3995 3.11176 14.3995 3.11191Z" fill="#4F4F4F"/>
</svg>
