<svg width="24" height="24" viewBox="0 0 24 24" fill="none" xmlns="http://www.w3.org/2000/svg">
<path opacity="0.4" d="M5.04414 15.8049C5.22214 15.7049 5.38614 15.6119 5.52714 15.5289C8.84414 13.5529 13.0541 13.5529 16.3711 15.5289C16.5121 15.6119 16.6761 15.7049 16.8541 15.8049C17.1721 15.9849 17.5361 16.1919 17.9011 16.4219H17.5741C16.7591 16.4219 16.3511 16.4219 16.0291 16.5649C15.6011 16.7549 15.2601 17.1199 15.0821 17.5789C14.9491 17.9239 14.9491 18.3609 14.9491 19.2339C14.9491 20.1069 14.9491 20.5449 15.0821 20.8889C15.2601 21.3489 15.6011 21.7139 16.0291 21.9039C16.0871 21.9299 16.1471 21.9509 16.2111 21.9679C15.9371 22.0189 15.6541 22.0469 15.3581 22.0469H6.54013C4.99413 22.0469 3.7651 21.2949 2.6621 20.2439C0.627104 18.3049 3.43314 16.7169 5.04414 15.8049Z" fill="#4F4F4F"/>
<path d="M18.6279 12.3027C19.6488 12.3687 20.4911 13.0003 20.8262 13.9521C20.9562 14.3111 20.963 14.7509 20.96 15.1709C20.959 15.3408 20.96 15.5684 20.96 15.7842C21.7089 16.0152 22.2873 16.6013 22.5684 17.4482L22.584 17.5029C22.7688 18.241 22.6969 20.3193 22.626 20.7451L22.6094 20.8223C22.3554 21.7382 21.6791 22.8248 19.9004 22.7939C19.7875 22.7939 19.6273 22.7939 19.4375 22.7949C19.0915 22.7959 18.7441 22.7959 18.4131 22.7959C17.4887 22.7959 16.6874 22.7897 16.3613 22.7607L16.2773 22.749C15.2633 22.542 14.5524 21.8545 14.2744 20.8145L14.2578 20.7568L14.252 20.6963C14.182 19.9992 14.1624 18.1292 14.3193 17.502C14.5013 16.777 15.063 16.0473 15.959 15.7803V15.0068C15.955 14.6278 15.9512 14.1565 16.2012 13.6875C16.6692 12.7666 17.596 12.2358 18.6279 12.3027ZM5.14453 14.8818C7.65941 13.3839 10.7511 12.9195 13.625 13.6094C14.028 13.7064 14.2767 14.1117 14.1797 14.5137C14.0827 14.9166 13.6774 15.1644 13.2754 15.0674C10.7784 14.4684 8.09409 14.8699 5.91211 16.1699C5.7672 16.2559 5.59886 16.3502 5.41602 16.4541C4.50613 16.969 2.81153 17.9273 2.70508 18.7852C2.69308 18.8862 2.65467 19.1953 3.18066 19.6973C4.33853 20.8011 5.37518 21.2938 6.54102 21.2939H12.4502C12.8642 21.2939 13.2002 21.6299 13.2002 22.0439C13.2 22.4578 12.8641 22.7939 12.4502 22.7939H6.54004C4.9802 22.7938 3.58438 22.1541 2.14551 20.7832C1.43361 20.1052 1.1208 19.3715 1.2168 18.6016C1.41584 16.9936 3.37875 15.8834 4.67773 15.1494C4.84961 15.0525 5.00862 14.9628 5.14453 14.8818ZM16.7109 17.1748C16.0046 17.1749 15.8166 17.7028 15.7764 17.8652C15.6954 18.1892 15.6762 19.7373 15.7412 20.4834C15.8722 20.9224 16.1271 21.1735 16.5381 21.2695H16.5371C17.0141 21.3025 18.6385 21.2969 19.4326 21.2949C19.6276 21.2949 19.7922 21.2939 19.9082 21.2939H19.9219C20.6338 21.3079 20.9703 21.0807 21.1533 20.4629C21.2023 20.0739 21.2387 18.3686 21.1357 17.8906C20.9287 17.2997 20.5228 17.1748 20.2168 17.1748H16.7109ZM18.5312 13.7988C18.3703 13.7888 17.8232 13.7985 17.5361 14.3701L17.5254 14.3916C17.4751 14.4847 17.4614 14.6115 17.459 14.792V15.6748H19.46C19.46 15.4908 19.459 15.3052 19.46 15.1582C19.4629 14.7848 19.4479 14.5521 19.416 14.4629L19.4121 14.4512C19.2141 13.8858 18.6885 13.8089 18.5312 13.7988ZM11.9492 1.29688C14.8442 1.29688 17.1992 3.65187 17.1992 6.54688C17.1992 9.44188 14.8442 11.7969 11.9492 11.7969C9.05435 11.7967 6.69922 9.44178 6.69922 6.54688C6.69922 3.65197 9.05435 1.29703 11.9492 1.29688ZM11.9492 2.79688C9.88135 2.79703 8.19922 4.47897 8.19922 6.54688C8.19922 8.61478 9.88135 10.2967 11.9492 10.2969C14.0172 10.2969 15.6992 8.61488 15.6992 6.54688C15.6992 4.47887 14.0172 2.79688 11.9492 2.79688Z" fill="#4F4F4F"/>
</svg>
