<svg width="61" height="71" viewBox="0 0 61 71" fill="none" xmlns="http://www.w3.org/2000/svg">
<g filter="url(#filter0_f_1238_2968)">
<ellipse cx="30.5" cy="65" rx="8.5" ry="3" fill="black" fill-opacity="0.3"/>
</g>
<g filter="url(#filter1_d_1238_2968)">
<path fill-rule="evenodd" clip-rule="evenodd" d="M30.5 4C44.5833 4 56 15.4167 56 29.5C56 40.2983 49.2881 49.5289 39.8087 53.2475L31.9521 63.9865C31.7883 64.2113 31.5709 64.3948 31.3181 64.5215C31.0653 64.6481 30.7846 64.7143 30.4997 64.7143C30.2149 64.7143 29.9342 64.6481 29.6814 64.5215C29.4286 64.3948 29.2111 64.2113 29.0473 63.9865L21.1905 53.2472C11.7115 49.5284 5 40.298 5 29.5C5 15.4167 16.4167 4 30.5 4Z" fill="#3478F5"/>
<path d="M30.5 5.5C43.7548 5.5 54.5 16.2452 54.5 29.5C54.5 39.6607 48.1851 48.3506 39.2607 51.8516L38.8555 52.0098L38.5977 52.3623L30.7412 63.1006L30.7402 63.1035C30.7199 63.1314 30.6888 63.1594 30.6465 63.1807C30.6039 63.202 30.5532 63.2138 30.5 63.2139C30.4468 63.2139 30.3961 63.202 30.3535 63.1807C30.3112 63.1595 30.2801 63.1314 30.2598 63.1035L30.2578 63.1006L22.4014 52.3613L22.1436 52.0098L21.7383 51.8506C12.8143 48.3494 6.5 39.6604 6.5 29.5C6.5 16.2452 17.2452 5.5 30.5 5.5Z" stroke="white" stroke-width="3"/>
</g>
<path fill-rule="evenodd" clip-rule="evenodd" d="M22.9484 20.5208H31.0699C31.8157 20.5208 32.4858 20.5207 33.0282 20.5881C33.6203 20.6616 34.2278 20.8324 34.7254 21.292C35.223 21.7517 35.443 22.622 35.5226 23.169C39.9972 23.4229 43.5413 26.8557 43.5413 31.0532L43.5413 34.01V34.01V34.01V34.01C43.5415 34.1939 43.5416 34.3739 43.5194 34.5386C43.358 35.7346 41.8203 36.697 40.5256 36.8461C40.0351 38.3688 38.5081 39.4791 36.7004 39.4791C34.8927 39.4791 33.3657 38.3688 32.8751 36.846H29.1242C28.6336 38.3688 27.1066 39.4791 25.2989 39.4791C23.4873 39.4791 21.9577 38.364 21.4705 36.8363C21.0754 36.8032 20.2841 36.7071 19.8832 36.4933C19.4499 36.2622 19.0901 35.9298 18.8399 35.5295C18.6084 35.1592 18.5271 34.773 18.4913 34.408C18.458 34.068 18.458 33.6579 18.458 33.2021L18.458 24.6689C18.4579 23.9799 18.4579 23.3609 18.5308 22.8599C18.6104 22.3129 18.7953 21.7517 19.2929 21.292C19.7905 20.8324 20.398 20.6616 20.9901 20.5881C21.5325 20.5207 22.2026 20.5208 22.9484 20.5208ZM36.7012 32.1061C36.305 32.1061 35.9223 32.1595 35.5611 32.2588V25.2837C38.7572 25.5497 41.2618 28.0311 41.2618 31.0529L41.2618 34.2126C41.2618 34.5383 41.0423 34.7392 40.5265 34.7392C40.0359 33.2165 38.5089 32.1061 36.7012 32.1061ZM23.5895 35.7925C23.5895 34.9199 24.3552 34.2126 25.2997 34.2126C26.2443 34.2126 27.01 34.9199 27.01 35.7925C27.01 36.665 26.2443 37.3723 25.2997 37.3723C24.3552 37.3723 23.5895 36.665 23.5895 35.7925ZM36.7012 34.2126C35.7567 34.2126 34.991 34.9199 34.991 35.7925C34.991 36.665 35.7567 37.3723 36.7012 37.3723C37.6458 37.3723 38.4115 36.665 38.4115 35.7925C38.4115 34.9199 37.6458 34.2126 36.7012 34.2126ZM25.458 24.5833C25.458 24.1346 25.0663 23.7708 24.583 23.7708C24.0998 23.7708 23.708 24.1346 23.708 24.5833L23.708 28.9164C23.708 29.3651 24.0998 29.7289 24.583 29.7289C25.0663 29.7289 25.458 29.3651 25.458 28.9164L25.458 24.5833ZM30.1247 24.5833C30.1247 24.1346 29.7329 23.7708 29.2497 23.7708C28.7664 23.7708 28.3747 24.1346 28.3747 24.5833L28.3747 28.9164C28.3747 29.3651 28.7664 29.7289 29.2497 29.7289C29.7329 29.7289 30.1247 29.3651 30.1247 28.9164L30.1247 24.5833Z" fill="#0048B3"/>
<defs>
<filter id="filter0_f_1238_2968" x="20" y="60" width="21" height="10" filterUnits="userSpaceOnUse" color-interpolation-filters="sRGB">
<feFlood flood-opacity="0" result="BackgroundImageFix"/>
<feBlend mode="normal" in="SourceGraphic" in2="BackgroundImageFix" result="shape"/>
<feGaussianBlur stdDeviation="1" result="effect1_foregroundBlur_1238_2968"/>
</filter>
<filter id="filter1_d_1238_2968" x="0" y="0" width="61" height="70.7143" filterUnits="userSpaceOnUse" color-interpolation-filters="sRGB">
<feFlood flood-opacity="0" result="BackgroundImageFix"/>
<feColorMatrix in="SourceAlpha" type="matrix" values="0 0 0 0 0 0 0 0 0 0 0 0 0 0 0 0 0 0 127 0" result="hardAlpha"/>
<feOffset dy="1"/>
<feGaussianBlur stdDeviation="2.5"/>
<feComposite in2="hardAlpha" operator="out"/>
<feColorMatrix type="matrix" values="0 0 0 0 0 0 0 0 0 0 0 0 0 0 0 0 0 0 0.1 0"/>
<feBlend mode="normal" in2="BackgroundImageFix" result="effect1_dropShadow_1238_2968"/>
<feBlend mode="normal" in="SourceGraphic" in2="effect1_dropShadow_1238_2968" result="shape"/>
</filter>
</defs>
</svg>
