<svg width="61" height="71" viewBox="0 0 61 71" fill="none" xmlns="http://www.w3.org/2000/svg">
<g filter="url(#filter0_f_1201_2972)">
<ellipse cx="30.5" cy="64" rx="8.5" ry="3" fill="black" fill-opacity="0.3"/>
</g>
<g filter="url(#filter1_d_1201_2972)">
<path fill-rule="evenodd" clip-rule="evenodd" d="M30.5 4C44.5833 4 56 15.4167 56 29.5C56 40.2983 49.2881 49.5289 39.8087 53.2475L31.9521 63.9865C31.7883 64.2113 31.5709 64.3948 31.3181 64.5215C31.0653 64.6481 30.7846 64.7143 30.4997 64.7143C30.2149 64.7143 29.9342 64.6481 29.6814 64.5215C29.4286 64.3948 29.2111 64.2113 29.0473 63.9865L21.1905 53.2472C11.7115 49.5284 5 40.298 5 29.5C5 15.4167 16.4167 4 30.5 4Z" fill="url(#paint0_linear_1201_2972)"/>
</g>
<path opacity="0.4" d="M32.2476 22.75H29.7524C26.165 22.75 23.7463 26.5864 25.1594 30.035C25.3563 30.5154 25.8079 30.8269 26.3077 30.8269H27.1864C27.4826 30.8269 27.7407 31.0378 27.8126 31.3383L28.9438 36.0709C29.1797 37.0577 30.0274 37.75 31 37.75C31.9726 37.75 32.8203 37.0577 33.0562 36.0709L34.1874 31.3383C34.2593 31.0378 34.5174 30.8269 34.8136 30.8269H35.6923C36.1921 30.8269 36.6437 30.5154 36.8406 30.035C38.2537 26.5864 35.835 22.75 32.2476 22.75Z" fill="#00C6FF"/>
<path d="M37.9629 33.5361C38.219 33.0862 38.7913 32.9295 39.2412 33.1855C40.7312 34.0335 41.9374 35.2862 41.9375 36.8945C41.9375 38.7534 40.3409 40.1381 38.4629 41.0029C36.5046 41.9047 33.8651 42.4375 31 42.4375C28.1349 42.4375 25.4954 41.9047 23.5371 41.0029C21.6591 40.1381 20.0625 38.7534 20.0625 36.8945C20.0626 35.2862 21.2688 34.0335 22.7588 33.1855C23.2087 32.9295 23.781 33.0862 24.0371 33.5361C24.2932 33.9861 24.1355 34.5584 23.6855 34.8145C22.3963 35.5482 21.9376 36.3096 21.9375 36.8945C21.9375 37.579 22.58 38.4979 24.3213 39.2998C25.9822 40.0646 28.3425 40.5625 31 40.5625C33.6575 40.5625 36.0178 40.0646 37.6787 39.2998C39.42 38.4979 40.0625 37.579 40.0625 36.8945C40.0624 36.3096 39.6037 35.5482 38.3145 34.8145C37.8645 34.5584 37.7068 33.9861 37.9629 33.5361ZM31 15.5625C33.2437 15.5625 35.0625 17.3813 35.0625 19.625C35.0625 20.5763 34.7342 21.4503 34.1865 22.1426C37.3409 23.2596 39.0874 27.0245 37.708 30.3906C37.3742 31.205 36.5916 31.7646 35.6924 31.7646H35.0498L33.9678 36.2891C33.6372 37.6715 32.4326 38.6875 31 38.6875C29.5674 38.6875 28.3628 37.6715 28.0322 36.2891L26.9502 31.7646H26.3076C25.4084 31.7646 24.6258 31.205 24.292 30.3906C22.9128 27.0247 24.6586 23.2599 27.8125 22.1426C27.265 21.4503 26.9375 20.5761 26.9375 19.625C26.9375 17.3813 28.7563 15.5625 31 15.5625ZM29.752 23.6875C26.8945 23.6878 24.8426 26.7884 26.0273 29.6797C26.0873 29.8258 26.2075 29.8896 26.3076 29.8896H27.1865C27.9427 29.8897 28.5581 30.4239 28.7246 31.1201L29.8555 35.8525C29.9967 36.4436 30.4876 36.8125 31 36.8125C31.5124 36.8125 32.0033 36.4436 32.1445 35.8525L33.2754 31.1201C33.4419 30.4239 34.0573 29.8897 34.8135 29.8896H35.6924C35.7925 29.8896 35.9127 29.8258 35.9727 29.6797C37.1574 26.7884 35.1054 23.6878 32.248 23.6875H29.752ZM31 17.4375C29.7919 17.4375 28.8125 18.4169 28.8125 19.625C28.8125 20.8331 29.7919 21.8125 31 21.8125C32.2081 21.8125 33.1875 20.8331 33.1875 19.625C33.1875 18.4169 32.2081 17.4375 31 17.4375Z" fill="#00C6FF"/>
<defs>
<filter id="filter0_f_1201_2972" x="20" y="59" width="21" height="10" filterUnits="userSpaceOnUse" color-interpolation-filters="sRGB">
<feFlood flood-opacity="0" result="BackgroundImageFix"/>
<feBlend mode="normal" in="SourceGraphic" in2="BackgroundImageFix" result="shape"/>
<feGaussianBlur stdDeviation="1" result="effect1_foregroundBlur_1201_2972"/>
</filter>
<filter id="filter1_d_1201_2972" x="0" y="0" width="61" height="70.7143" filterUnits="userSpaceOnUse" color-interpolation-filters="sRGB">
<feFlood flood-opacity="0" result="BackgroundImageFix"/>
<feColorMatrix in="SourceAlpha" type="matrix" values="0 0 0 0 0 0 0 0 0 0 0 0 0 0 0 0 0 0 127 0" result="hardAlpha"/>
<feOffset dy="1"/>
<feGaussianBlur stdDeviation="2.5"/>
<feComposite in2="hardAlpha" operator="out"/>
<feColorMatrix type="matrix" values="0 0 0 0 0 0 0 0 0 0 0 0 0 0 0 0 0 0 0.1 0"/>
<feBlend mode="normal" in2="BackgroundImageFix" result="effect1_dropShadow_1201_2972"/>
<feBlend mode="normal" in="SourceGraphic" in2="effect1_dropShadow_1201_2972" result="shape"/>
</filter>
<linearGradient id="paint0_linear_1201_2972" x1="30.5" y1="4" x2="30.5" y2="64.7143" gradientUnits="userSpaceOnUse">
<stop offset="0.0769231" stop-color="#001747"/>
<stop offset="1" stop-color="#0037AD"/>
</linearGradient>
</defs>
</svg>
