<svg width="12" height="12" viewBox="0 0 12 12" fill="none" xmlns="http://www.w3.org/2000/svg">
<path fill-rule="evenodd" clip-rule="evenodd" d="M6 0.25C2.85634 0.25 0.25 2.6966 0.25 5.78336C0.25 7.26183 0.853039 8.60076 1.82505 9.58778C1.86348 9.67618 1.85101 9.97705 1.49362 10.4734C1.32669 10.6787 1.28031 10.9568 1.37158 11.2052C1.46285 11.4535 1.67825 11.6355 1.93841 11.6838C2.82907 11.8495 3.95996 11.6072 4.74926 11.1875C5.11371 11.2559 5.62879 11.3171 6 11.3167C9.14366 11.3167 11.75 8.87012 11.75 5.78336C11.75 2.6966 9.14366 0.25 6 0.25ZM6.75841 3.5C6.75841 3.08579 6.42262 2.75 6.00841 2.75C5.59419 2.75 5.25841 3.08579 5.25841 3.5V6C5.25841 6.41421 5.59419 6.75 6.00841 6.75C6.42262 6.75 6.75841 6.41421 6.75841 6V3.5ZM6 7.25C5.58579 7.25 5.25 7.58579 5.25 8C5.25 8.41421 5.58579 8.75 6 8.75H6.00808C6.4223 8.75 6.75808 8.41421 6.75808 8C6.75808 7.58579 6.4223 7.25 6.00808 7.25H6Z" fill="#0084F0"/>
</svg>
