<svg width="24" height="24" viewBox="0 0 24 24" fill="none" xmlns="http://www.w3.org/2000/svg">
<path opacity="0.4" d="M11.5874 1.2501C12.1574 1.24934 12.6619 1.24866 13.1373 1.41733C13.2353 1.45209 13.3314 1.49208 13.4251 1.53715C13.8799 1.75582 14.2362 2.11489 14.6387 2.52054L19.4215 7.32819C19.8889 7.79654 20.3036 8.2122 20.5277 8.75596C20.7518 9.29971 20.7509 9.88846 20.7499 10.5518L20.7497 13.7349C20.2235 13.474 19.5963 13.4181 18.9988 13.6297C17.9055 14.0169 16.9268 14.7264 16.1378 15.4184C15.3256 16.1306 14.5815 16.9435 13.9634 17.6843C13.841 17.831 13.7225 17.9762 13.6083 18.1187C13.2801 17.9011 12.6091 17.5006 11.75 17.5006C10.5074 17.5006 9.5 18.508 9.5 19.7506C9.5 20.8034 10.2223 21.6864 11.1991 21.9324C11.3231 22.0763 11.5496 22.3827 11.7341 22.75C10.0995 22.7494 8.65533 22.7404 7.60322 22.5982C6.43643 22.4405 5.45402 22.1031 4.67377 21.3188C3.89352 20.5345 3.55792 19.547 3.40105 18.3741C3.24996 17.2445 3.24998 15.8082 3.25 14.0262V14.0262V9.45263V9.45261C3.24998 7.91897 3.24997 6.68239 3.36424 5.69856C3.48248 4.6806 3.73418 3.80839 4.32681 3.06954C4.54435 2.79833 4.79012 2.55128 5.05992 2.33261C5.79495 1.7369 6.66265 1.48389 7.67534 1.36504C8.6541 1.25017 10.0617 1.25008 11.5874 1.2501Z" fill="#0084F0"/>
<path d="M19.416 14.8076C19.9365 14.6233 20.5078 14.8957 20.6924 15.416C20.8768 15.9366 20.6046 16.509 20.084 16.6934C19.5503 16.8824 18.9333 17.2886 18.2803 17.8613C17.6377 18.4249 17.0127 19.1019 16.459 19.7656C15.9072 20.4271 14.9249 21.8171 14.5938 22.2861C14.4005 22.5901 14.0589 22.7673 13.6992 22.749C13.3393 22.7306 13.0166 22.5196 12.8555 22.1973C12.4148 21.316 11.9588 20.8488 11.6562 20.7461C11.1479 20.6988 10.75 20.2707 10.75 19.75C10.7501 19.1978 11.1978 18.75 11.75 18.75C12.2373 18.75 12.6553 18.985 12.9297 19.168C13.2039 19.3508 13.4916 19.6035 13.7803 19.9492C14.0954 19.5185 14.4837 19.0108 14.9229 18.4844C15.5161 17.7732 16.2149 17.0125 16.9619 16.3574C17.6985 15.7115 18.538 15.1186 19.416 14.8076ZM12.4902 1.28125C12.7136 1.30432 12.9286 1.34576 13.1377 1.41992C13.2355 1.45464 13.3312 1.49505 13.4248 1.54004C13.8796 1.75871 14.2362 2.11779 14.6387 2.52344L19.4219 7.33105C19.8891 7.79927 20.3033 8.21517 20.5273 8.75879C20.6261 8.99849 20.6813 9.24711 20.7119 9.50684H18.7314C17.3641 9.50686 16.7154 9.50615 15.8486 9.38965C14.9485 9.26863 14.1898 9.00914 13.5879 8.40723C12.9862 7.80536 12.7274 7.04742 12.6064 6.14746C12.4901 5.28227 12.4902 4.63432 12.4902 3.27246V1.28125Z" fill="#0084F0"/>
</svg>
