<svg width="24" height="24" viewBox="0 0 24 24" fill="none" xmlns="http://www.w3.org/2000/svg">
<path d="M9.5044 5.39556C8.36808 5.10003 6.84864 4.84725 5.04155 4.80056C4.5048 4.7867 3.96379 4.6472 3.47757 4.36461L1.9455 3.47419C1.63619 3.29443 1.48154 3.20454 1.36577 3.27287C1.25 3.3412 1.25 3.52237 1.25 3.8847V15.4244C1.25 15.4308 1.25207 15.437 1.25589 15.4421C1.69831 15.9715 2.84345 17.31 3.63782 18.0125C5.25105 19.4393 7.37464 20.75 9.67568 20.75C11.6369 20.75 13.5088 20.2872 15.0504 19.6358C15.8829 19.2841 16.5982 18.8864 17.1694 18.493C17.3766 18.3502 17.4802 18.2789 17.4903 18.1675C17.5003 18.056 17.4042 17.9596 17.2118 17.7669C16.3376 16.8906 15.6887 15.8927 15.1887 14.9537C14.8287 14.2778 14.54 13.6211 14.3001 13.0521C14.2773 12.9978 14.2388 12.9059 14.1956 12.8027C14.0915 12.5537 14.0395 12.4292 13.9329 12.3982C13.8263 12.3672 13.7175 12.4448 13.4999 12.6L12.1179 13.5862C10.7021 14.5963 8.76451 14.438 7.53078 13.2055C6.08156 11.7579 6.13889 9.38787 7.65392 8.01203L9.67878 6.1732C9.94916 5.92767 10.0843 5.8049 10.0513 5.66704C10.0182 5.52919 9.84695 5.48465 9.5044 5.39556Z" fill="#0084F0"/>
<path opacity="0.4" d="M12.4373 6.16828C12.4292 6.17315 12.4209 6.17789 12.4126 6.18248C12.172 6.32174 11.9451 6.487 11.7362 6.67671L8.81073 9.33337C8.04621 10.0277 8.01888 11.211 8.74807 11.9394C9.37943 12.5701 10.3819 12.6548 11.1125 12.1335L13.0473 10.753C13.5139 10.4201 14.0948 10.2964 14.653 10.4079L15.0405 10.4853C16.1477 10.7065 17.2951 10.4455 18.1947 9.77157L18.881 9.25742C19.2685 8.96704 19.8142 9.05121 20.0997 9.44541C20.3852 9.83961 20.3024 10.3946 19.9148 10.6849L19.2286 11.1991C18.4447 11.7864 17.5328 12.1544 16.5841 12.2835C16.2578 12.3278 16.0947 12.35 16.0381 12.4541C15.9814 12.5581 16.0446 12.6995 16.1711 12.9822C16.3353 13.3496 16.5164 13.731 16.7173 14.108C17.2758 15.1569 17.9916 16.1912 18.9696 16.9914C19.0543 17.0607 19.0966 17.0953 19.1525 17.1067C19.2084 17.118 19.2616 17.1022 19.3681 17.0705C19.6381 16.9902 19.9884 16.877 20.3265 16.7447C21.0638 16.4563 21.8952 16.0412 22.5832 15.4783C22.6612 15.4146 22.7002 15.3827 22.723 15.3343C22.7458 15.2858 22.7458 15.2321 22.7458 15.1247V4.05599C22.7458 3.67045 22.7458 3.47768 22.6239 3.41066C22.502 3.34364 22.3434 3.44924 22.0263 3.66043L20.1314 4.92234C19.0174 5.66423 17.6792 5.98885 16.3519 5.84152L14.8374 5.67343C13.9964 5.58007 13.1571 5.75851 12.4373 6.16828Z" fill="#0084F0"/>
</svg>
