<svg width="24" height="24" viewBox="0 0 24 24" fill="none" xmlns="http://www.w3.org/2000/svg">
<path opacity="0.4" d="M13.056 1.25C14.89 1.25 16.35 1.25 17.49 1.403C18.66 1.561 19.61 1.89299 20.36 2.64099C21.11 3.38999 21.44 4.33901 21.6 5.51101C21.75 6.65001 21.75 8.10599 21.75 9.94399V14.056C21.75 15.894 21.75 17.35 21.6 18.489C21.44 19.661 21.11 20.61 20.36 21.359C19.61 22.107 18.66 22.439 17.49 22.597C16.35 22.75 14.89 22.75 13.056 22.75H10.944C9.10604 22.75 7.65004 22.75 6.51104 22.597C5.33904 22.439 4.39002 22.107 3.64102 21.359C2.89302 20.61 2.56103 19.661 2.40303 18.489C2.25003 17.35 2.25 15.894 2.25 14.056V9.94399C2.25 8.10599 2.25003 6.65001 2.40303 5.51101C2.56103 4.33901 2.89302 3.38999 3.64102 2.64099C4.39002 1.89299 5.33904 1.561 6.51104 1.403C7.65004 1.25 9.10604 1.25 10.944 1.25H13.056Z" fill="#0084F0"/>
<path d="M16 16C16.55 16 17 16.448 17 17C17 17.552 16.55 18 16 18H8C7.448 18 7 17.552 7 17C7 16.448 7.448 16 8 16L16 16ZM17 6C17.41 6 17.75 6.336 17.75 6.75C17.75 7.164 17.41 7.5 17 7.5H16.79C16.94 7.66597 17.1396 7.89814 17.3496 8.16309C17.5495 8.425 17.7597 8.73387 17.9297 9.05176C18.0897 9.35176 18.25 9.74439 18.25 10.1504C18.2498 11.4022 17.2899 12.5 16 12.5C14.7101 12.5 13.7502 11.4022 13.75 10.1504C13.75 9.74439 13.9133 9.35176 14.0703 9.05176C14.2403 8.73387 14.4505 8.425 14.6504 8.16309C14.8604 7.89814 15.06 7.66597 15.21 7.5H12.75L12.75 13.043C13.041 13.146 13.25 13.423 13.25 13.75C13.25 14.164 12.914 14.5 12.5 14.5H11.5C11.086 14.5 10.75 14.164 10.75 13.75C10.75 13.423 10.959 13.146 11.25 13.043L11.25 7.5L8.79297 7.5C8.94195 7.66598 9.14275 7.89812 9.34473 8.16309C9.54566 8.425 9.76074 8.73387 9.92871 9.05176C10.0867 9.35176 10.25 9.74439 10.25 10.1504C10.2498 11.4022 9.28787 12.5 8 12.5C6.71213 12.5 5.7502 11.4022 5.75 10.1504C5.75 9.74439 5.91329 9.35176 6.07129 9.05176C6.23926 8.73387 6.45434 8.425 6.65527 8.16309C6.85725 7.89812 7.05805 7.66598 7.20703 7.5H7C6.586 7.5 6.25 7.164 6.25 6.75C6.25 6.336 6.586 6 7 6L17 6Z" fill="#0084F0"/>
</svg>
