<svg width="24" height="24" viewBox="0 0 24 24" fill="none" xmlns="http://www.w3.org/2000/svg">
<path opacity="0.4" fill-rule="evenodd" clip-rule="evenodd" d="M22.75 8C22.75 4.27208 19.7279 1.25 16 1.25C12.5025 1.25 9.62621 3.91012 9.28409 7.31753C9.26044 7.55298 9.24862 7.6707 9.31573 7.76318C9.38283 7.85565 9.5121 7.88392 9.77063 7.94046C12.9057 8.62605 15.374 11.0943 16.0596 14.2294C16.1161 14.4879 16.1444 14.6172 16.2368 14.6843C16.3293 14.7514 16.447 14.7396 16.6825 14.7159C20.0899 14.3738 22.75 11.4976 22.75 8ZM8 9.25C4.27208 9.25 1.25 12.2721 1.25 16C1.25 19.7279 4.27208 22.75 8 22.75C11.7279 22.75 14.75 19.7279 14.75 16C14.75 12.2721 11.7279 9.25 8 9.25Z" fill="#0084F0"/>
<path fill-rule="evenodd" clip-rule="evenodd" d="M6.5663 5.19395L5.77448 4.24219C3.98604 5.07881 2.75 6.89355 2.75 9C2.75 9.41421 2.41421 9.75 2 9.75C1.58579 9.75 1.25 9.41421 1.25 9C1.25 6.05696 3.12763 3.55843 5.75052 2.63328C6.45502 2.38478 7.21245 2.25 8 2.25C8.25993 2.25 8.50133 2.38459 8.63799 2.6057C8.77464 2.82681 8.78707 3.10292 8.67082 3.33541L7.81368 5.0497C7.70044 5.27618 7.48056 5.43023 7.22902 5.45932C6.97748 5.48841 6.72824 5.38861 6.5663 5.19395ZM17.4337 18.806L18.2255 19.7578C20.014 18.9212 21.25 17.1064 21.25 15C21.25 14.5858 21.5858 14.25 22 14.25C22.4142 14.25 22.75 14.5858 22.75 15C22.75 17.943 20.8724 20.4416 18.2495 21.3667C17.545 21.6152 16.7875 21.75 16 21.75C15.7401 21.75 15.4987 21.6154 15.362 21.3943C15.2254 21.1732 15.2129 20.8971 15.3292 20.6646L16.1863 18.9503C16.2996 18.7238 16.5194 18.5698 16.771 18.5407C17.0225 18.5116 17.2718 18.6114 17.4337 18.806Z" fill="#0084F0"/>
</svg>
