<svg width="24" height="24" viewBox="0 0 24 24" fill="none" xmlns="http://www.w3.org/2000/svg">
<path fill-rule="evenodd" clip-rule="evenodd" d="M6.49219 1.25C4.97219 1.25 3.74219 2.48 3.74219 4C3.74219 5.52 4.97219 6.75 6.49219 6.75C8.01219 6.75 9.24219 5.52 9.24219 4C9.24219 2.48 8.01219 1.25 6.49219 1.25ZM17.4922 1.25C15.9722 1.25 14.7422 2.48 14.7422 4C14.7422 5.52 15.9722 6.75 17.4922 6.75C19.0122 6.75 20.2422 5.52 20.2422 4C20.2422 2.48 19.0122 1.25 17.4922 1.25Z" fill="#0084F0"/>
<path opacity="0.4" fill-rule="evenodd" clip-rule="evenodd" d="M8.78391 7.58008C8.1939 7.50008 7.44391 7.5 6.54391 7.5H6.55391C5.65391 7.5 4.79392 7.50008 4.20392 7.58008C3.57392 7.66008 3.01391 7.85006 2.55391 8.31006C2.10391 8.76006 1.91391 9.32996 1.83391 9.95996C1.75391 10.55 1.75391 11.3 1.75391 12.2V14.04C1.75391 14.48 1.75391 14.87 1.79391 15.2C1.84391 15.55 1.95392 15.93 2.26392 16.24C2.57392 16.55 2.95391 16.66 3.30391 16.71C3.44391 16.73 3.59391 16.74 3.75391 16.74V20.04C3.75391 20.48 3.75391 20.87 3.79391 21.2C3.84391 21.55 3.95392 21.93 4.26392 22.24C4.57392 22.55 4.95391 22.66 5.30391 22.71C5.62391 22.75 6.11391 22.75 6.54391 22.75C6.97391 22.75 7.37391 22.75 7.69391 22.71C8.05391 22.66 8.42392 22.55 8.73392 22.24C9.04392 21.93 9.15392 21.55 9.20392 21.2C9.24391 20.87 9.24391 20.4802 9.24391 20.0403V20.04V16.74C9.40391 16.74 9.55391 16.73 9.69391 16.71C10.0539 16.66 10.4239 16.55 10.7339 16.24C11.0439 15.93 11.1539 15.55 11.2039 15.2C11.2439 14.87 11.2439 14.4802 11.2439 14.0403V14.04V12.2C11.2439 11.3 11.2439 10.55 11.1639 9.95996C11.0739 9.32996 10.8839 8.76006 10.4339 8.31006C9.98391 7.85006 9.41391 7.66008 8.78391 7.58008ZM17.4938 7.5C16.1638 7.5 15.1038 8.49003 14.6238 9.78003H14.6338L13.3738 12.8901C13.1438 13.5001 12.9538 14.02 12.8438 14.45C12.7338 14.89 12.6838 15.3701 12.9038 15.8401C13.1638 16.3901 13.6438 16.5999 14.0838 16.6799C14.2838 16.7199 14.5138 16.73 14.7538 16.74V20.04C14.7538 20.48 14.7538 20.87 14.7938 21.2C14.8438 21.55 14.9538 21.93 15.2638 22.24C15.5738 22.55 15.9438 22.66 16.3038 22.71C16.6238 22.75 17.1138 22.75 17.5438 22.75C17.9738 22.75 18.3738 22.75 18.6938 22.71C19.0538 22.66 19.4238 22.55 19.7338 22.24C20.0438 21.93 20.1538 21.55 20.2038 21.2C20.2438 20.87 20.2438 20.4801 20.2438 20.0402V20.04V16.74C20.4838 16.73 20.7138 16.7199 20.9138 16.6799C21.3538 16.5999 21.8438 16.3901 22.0938 15.8401C22.3138 15.3701 22.2638 14.89 22.1538 14.45C22.0438 14.02 21.8538 13.5001 21.6238 12.8901L20.3638 9.78003C19.8838 8.49003 18.8238 7.5 17.4938 7.5Z" fill="#0084F0"/>
</svg>
