<svg width="22" height="22" viewBox="0 0 22 22" fill="none" xmlns="http://www.w3.org/2000/svg">
<path fill-rule="evenodd" clip-rule="evenodd" d="M10.25 5.78336C10.25 2.6966 12.8563 0.25 16 0.25C19.1437 0.25 21.75 2.6966 21.75 5.78336C21.75 8.87012 19.1437 11.3167 16 11.3167C15.6288 11.3171 15.1137 11.2559 14.7493 11.1875C13.96 11.6072 12.8291 11.8495 11.9384 11.6838C11.6783 11.6355 11.4628 11.4535 11.3716 11.2052C11.2803 10.9568 11.3267 10.6787 11.4936 10.4734C11.851 9.97705 11.8635 9.67618 11.825 9.58778C10.853 8.60076 10.25 7.26183 10.25 5.78336ZM16.0084 2.75C16.4226 2.75 16.7584 3.08579 16.7584 3.5V6C16.7584 6.41421 16.4226 6.75 16.0084 6.75C15.5942 6.75 15.2584 6.41421 15.2584 6V3.5C15.2584 3.08579 15.5942 2.75 16.0084 2.75ZM15.25 8C15.25 7.58579 15.5858 7.25 16 7.25H16.0081C16.4223 7.25 16.7581 7.58579 16.7581 8C16.7581 8.41421 16.4223 8.75 16.0081 8.75H16C15.5858 8.75 15.25 8.41421 15.25 8ZM6.50027 7.75C4.56727 7.75 3.00027 9.317 3.00027 11.25C3.00027 13.183 4.56727 14.75 6.50027 14.75C8.43326 14.75 10.0003 13.183 10.0003 11.25C10.0003 9.317 8.43326 7.75 6.50027 7.75ZM12.0334 17.8258C11.5496 17.3899 10.6058 16.8991 10.1744 16.6756C7.92246 15.4413 5.07808 15.4413 2.8261 16.6756C2.39471 16.8991 1.45098 17.3899 0.967181 17.8258C0.668882 18.0946 0.324551 18.4993 0.260519 19.0385C0.189725 19.6346 0.482868 20.1474 0.94129 20.5494C1.68958 21.2055 2.61027 21.7499 3.8058 21.7499H9.19474C10.3903 21.7499 11.311 21.2055 12.0592 20.5494C12.5177 20.1474 12.8108 19.6346 12.74 19.0385C12.676 18.4993 12.3317 18.0946 12.0334 17.8258Z" fill="#0084F0"/>
</svg>
