<svg width="25" height="24" viewBox="0 0 25 24" fill="none" xmlns="http://www.w3.org/2000/svg">
<path fill-rule="evenodd" clip-rule="evenodd" d="M17.75 1.25C14.6063 1.25 12 3.6966 12 6.78336C12 8.26183 12.603 9.60076 13.575 10.5878C13.6005 10.6879 13.5698 11.0052 13.2436 11.4734C13.0767 11.6787 13.0303 11.9568 13.1216 12.2052C13.2128 12.4535 13.4283 12.6355 13.6884 12.6838C14.5791 12.8495 15.6852 12.6029 16.4745 12.1832C16.8389 12.2516 17.3788 12.3171 17.75 12.3167C20.8937 12.3167 23.5 9.87012 23.5 6.78336C23.5 3.6966 20.8937 1.25 17.75 1.25ZM16.2422 6.25C15.828 6.25 15.4922 6.58579 15.4922 7C15.4922 7.41421 15.828 7.75 16.2422 7.75H16.2503C16.6645 7.75 17.0003 7.41421 17.0003 7C17.0003 6.58579 16.6645 6.25 16.2503 6.25H16.2422ZM19.2422 6.25C18.828 6.25 18.4922 6.58579 18.4922 7C18.4922 7.41421 18.828 7.75 19.2422 7.75H19.2503C19.6645 7.75 20.0003 7.41421 20.0003 7C20.0003 6.58579 19.6645 6.25 19.2503 6.25H19.2422Z" fill="#0084F0"/>
<path opacity="0.4" fill-rule="evenodd" clip-rule="evenodd" d="M8.25 8.75C6.317 8.75 4.75 10.317 4.75 12.25C4.75 14.183 6.317 15.75 8.25 15.75C10.183 15.75 11.75 14.183 11.75 12.25C11.75 10.317 10.183 8.75 8.25 8.75ZM11.9244 17.6757C9.67246 16.4414 6.82808 16.4414 4.5761 17.6757C4.14471 17.8992 3.20098 18.3901 2.71718 18.8259C2.41888 19.0947 2.07455 19.4994 2.01052 20.0386C1.93972 20.6347 2.23287 21.1475 2.69129 21.5495C3.43958 22.2057 4.36027 22.75 5.5558 22.75H10.9447C12.1403 22.75 13.061 22.2057 13.8092 21.5495C14.2677 21.1475 14.5608 20.6347 14.49 20.0386C14.426 19.4994 14.0817 19.0947 13.7834 18.8259C13.2996 18.3901 12.3558 17.8992 11.9244 17.6757Z" fill="#0084F0"/>
</svg>
