<svg width="24" height="24" viewBox="0 0 24 24" fill="none" xmlns="http://www.w3.org/2000/svg">
<path d="M12.0004 19.7482C11.4005 19.7482 10.39 19.4399 7.89095 17.0356C6.58278 15.777 5.48966 14.5395 5.44305 14.4869C5.16939 14.1771 5.19945 13.7036 5.5092 13.4299C5.82045 13.1563 6.2926 13.1863 6.56777 13.496C8.80068 16.0281 11.3388 18.2491 12.0004 18.2491C12.662 18.2491 15.2017 16.0266 17.4346 13.496C17.7083 13.1847 18.1819 13.1563 18.4932 13.4299C18.8029 13.7036 18.833 14.1771 18.5593 14.4869C18.5127 14.5395 17.4196 15.777 16.1114 17.0356C13.6109 19.4399 12.6019 19.7482 12.0004 19.7482Z" fill="#0084F0"/>
<path opacity="0.4" d="M17.9958 10.7428C17.7883 10.7428 17.5823 10.657 17.4335 10.4901C15.1991 7.9655 12.6594 5.7507 11.9978 5.7507C11.3362 5.7507 8.79806 7.9655 6.56365 10.4901C6.28848 10.7999 5.81633 10.8285 5.50508 10.5549C5.19533 10.2812 5.16523 9.80755 5.44039 9.4963C5.4855 9.44367 6.5802 8.21063 7.88836 6.95509C10.3874 4.55828 11.3964 4.25 11.9978 4.25C12.5993 4.25 13.6067 4.55678 16.1073 6.95509C17.4155 8.21063 18.5101 9.44367 18.5552 9.4963C18.8289 9.80605 18.8003 10.2797 18.4905 10.5549C18.3477 10.6812 18.1703 10.7428 17.9943 10.7428H17.9958Z" fill="#0084F0"/>
</svg>
