<svg width="24" height="24" viewBox="0 0 24 24" fill="none" xmlns="http://www.w3.org/2000/svg">
<path d="M12.002 13.2422C12.6019 13.2422 13.6124 13.5504 16.1114 15.9548C17.4196 17.2133 18.5127 18.4508 18.5593 18.5035C18.833 18.8132 18.8029 19.2868 18.4932 19.5604C18.1819 19.8341 17.7098 19.8041 17.4346 19.4943C15.2017 16.9622 12.6636 14.7413 12.002 14.7413C11.3403 14.7413 8.80068 16.9637 6.56777 19.4943C6.29411 19.8056 5.82045 19.8341 5.5092 19.5604C5.19945 19.2868 5.16939 18.8132 5.44305 18.5035C5.48966 18.4508 6.58278 17.2133 7.89095 15.9548C10.3915 13.5504 11.4005 13.2422 12.002 13.2422Z" fill="#0084F0"/>
<path opacity="0.4" d="M5.99918 4.25C6.20668 4.25 6.41264 4.33581 6.5615 4.50271C8.79591 7.02733 11.3355 9.24212 11.9971 9.24212C12.6588 9.24212 15.1969 7.02733 17.4313 4.50271C17.7065 4.19296 18.1786 4.16429 18.4899 4.43795C18.7996 4.71162 18.8297 5.18527 18.5546 5.49652C18.5095 5.54915 17.4148 6.7822 16.1066 8.03774C13.6076 10.4345 12.5986 10.7428 11.9971 10.7428C11.3957 10.7428 10.3882 10.436 7.88768 8.03774C6.57952 6.7822 5.4849 5.54915 5.43979 5.49652C5.16613 5.18677 5.19472 4.71312 5.50447 4.43796C5.64732 4.31165 5.82472 4.25 6.00064 4.25L5.99918 4.25Z" fill="#0084F0"/>
</svg>
